<svg width="100" height="100" viewBox="0 0 100 100" fill="none" xmlns="http://www.w3.org/2000/svg">
<rect width="100" height="100" rx="50" fill="#CBBF8B"/>
<g clip-path="url(#clip0_0_1)">
<path d="M35.3333 21C31.2885 21 28 24.2512 28 28.25V71.75C28 75.7488 31.2885 79 35.3333 79H64.6667C68.7115 79 72 75.7488 72 71.75V39.125H57.3333C55.3052 39.125 53.6667 37.5051 53.6667 35.5V21H35.3333ZM57.3333 21V35.5H72L57.3333 21ZM37.1667 28.25H44.5C45.5083 28.25 46.3333 29.0656 46.3333 30.0625C46.3333 31.0594 45.5083 31.875 44.5 31.875H37.1667C36.1583 31.875 35.3333 31.0594 35.3333 30.0625C35.3333 29.0656 36.1583 28.25 37.1667 28.25ZM37.1667 35.5H44.5C45.5083 35.5 46.3333 36.3156 46.3333 37.3125C46.3333 38.3094 45.5083 39.125 44.5 39.125H37.1667C36.1583 39.125 35.3333 38.3094 35.3333 37.3125C35.3333 36.3156 36.1583 35.5 37.1667 35.5ZM43.3771 64.2508C42.6781 66.5504 40.5354 68.125 38.1062 68.125H37.1667C36.1583 68.125 35.3333 67.3094 35.3333 66.3125C35.3333 65.3156 36.1583 64.5 37.1667 64.5H38.1062C38.9198 64.5 39.6302 63.9789 39.8594 63.2086L41.5667 57.6012C41.9563 56.3211 43.1479 55.4375 44.5 55.4375C45.8521 55.4375 47.0438 56.3098 47.4333 57.6012L48.7625 61.9738C49.6104 61.2715 50.6875 60.875 51.8333 60.875C53.6552 60.875 55.3167 61.8945 56.1302 63.5031L56.6344 64.5H62.8333C63.8417 64.5 64.6667 65.3156 64.6667 66.3125C64.6667 67.3094 63.8417 68.125 62.8333 68.125H55.5C54.801 68.125 54.1708 67.7398 53.8615 67.1281L52.8531 65.123C52.6583 64.7379 52.2688 64.5 51.8448 64.5C51.4208 64.5 51.0198 64.7379 50.8365 65.123L49.8281 67.1281C49.4958 67.7965 48.774 68.193 48.0292 68.125C47.2844 68.057 46.6427 67.5473 46.4365 66.8449L44.5 60.5352L43.3771 64.2508Z" fill="#264653"/>
</g>
<defs>
<clipPath id="clip0_0_1">
<rect width="44" height="58" fill="white" transform="translate(28 21)"/>
</clipPath>
</defs>
</svg>
