<svg width="100" height="100" viewBox="0 0 100 100" fill="none" xmlns="http://www.w3.org/2000/svg">
<rect width="100" height="100" rx="50" fill="#264653"/>
<g clip-path="url(#clip0_0_1)">
<path d="M37.1113 23C35.329 23 33.8891 24.3965 33.8891 26.125C33.8891 27.8535 35.329 29.25 37.1113 29.25H42.2165L21.9467 48.918C20.688 50.1387 20.688 52.1211 21.9467 53.3418C23.2054 54.5625 25.2495 54.5625 26.5082 53.3418L46.7779 33.6738V38.625C46.7779 40.3535 48.2179 41.75 50.0002 41.75C51.7825 41.75 53.2224 40.3535 53.2224 38.625V26.125C53.2224 24.3965 51.7825 23 50.0002 23H37.1113ZM79.0002 30.8125C79.0002 29.5693 78.4909 28.377 77.5845 27.4979C76.6781 26.6189 75.4487 26.125 74.1668 26.125C72.885 26.125 71.6556 26.6189 70.7492 27.4979C69.8427 28.377 69.3335 29.5693 69.3335 30.8125C69.3335 32.0557 69.8427 33.248 70.7492 34.1271C71.6556 35.0061 72.885 35.5 74.1668 35.5C75.4487 35.5 76.6781 35.0061 77.5845 34.1271C78.4909 33.248 79.0002 32.0557 79.0002 30.8125ZM66.1113 43.3125C66.1113 42.6969 65.9863 42.0874 65.7434 41.5187C65.5005 40.95 65.1444 40.4332 64.6956 39.9979C64.2468 39.5627 63.714 39.2174 63.1276 38.9818C62.5412 38.7462 61.9127 38.625 61.2779 38.625C60.6432 38.625 60.0147 38.7462 59.4283 38.9818C58.8419 39.2174 58.3091 39.5627 57.8603 39.9979C57.4114 40.4332 57.0554 40.95 56.8125 41.5187C56.5696 42.0874 56.4446 42.6969 56.4446 43.3125C56.4446 43.9281 56.5696 44.5376 56.8125 45.1063C57.0554 45.675 57.4114 46.1918 57.8603 46.6271C58.3091 47.0623 58.8419 47.4076 59.4283 47.6432C60.0147 47.8788 60.6432 48 61.2779 48C61.9127 48 62.5412 47.8788 63.1276 47.6432C63.714 47.4076 64.2468 47.0623 64.6956 46.6271C65.1444 46.1918 65.5005 45.675 65.7434 45.1063C65.9863 44.5376 66.1113 43.9281 66.1113 43.3125ZM61.2779 60.5C62.5598 60.5 63.7892 60.0061 64.6956 59.1271C65.6021 58.248 66.1113 57.0557 66.1113 55.8125C66.1113 54.5693 65.6021 53.377 64.6956 52.4979C63.7892 51.6189 62.5598 51.125 61.2779 51.125C59.9961 51.125 58.7667 51.6189 57.8603 52.4979C56.9538 53.377 56.4446 54.5693 56.4446 55.8125C56.4446 57.0557 56.9538 58.248 57.8603 59.1271C58.7667 60.0061 59.9961 60.5 61.2779 60.5ZM66.1113 68.3125C66.1113 67.6969 65.9863 67.0874 65.7434 66.5187C65.5005 65.95 65.1444 65.4332 64.6956 64.9979C64.2468 64.5627 63.714 64.2174 63.1276 63.9818C62.5412 63.7462 61.9127 63.625 61.2779 63.625C60.6432 63.625 60.0147 63.7462 59.4283 63.9818C58.8419 64.2174 58.3091 64.5627 57.8603 64.9979C57.4114 65.4332 57.0554 65.95 56.8125 66.5187C56.5696 67.0874 56.4446 67.6969 56.4446 68.3125C56.4446 68.9281 56.5696 69.5376 56.8125 70.1063C57.0554 70.675 57.4114 71.1918 57.8603 71.6271C58.3091 72.0623 58.8419 72.4076 59.4283 72.6432C60.0147 72.8788 60.6432 73 61.2779 73C61.9127 73 62.5412 72.8788 63.1276 72.6432C63.714 72.4076 64.2468 72.0623 64.6956 71.6271C65.1444 71.1918 65.5005 70.675 65.7434 70.1063C65.9863 69.5376 66.1113 68.9281 66.1113 68.3125ZM79.0002 68.3125C79.0002 67.0693 78.4909 65.877 77.5845 64.9979C76.6781 64.1189 75.4487 63.625 74.1668 63.625C72.885 63.625 71.6556 64.1189 70.7492 64.9979C69.8427 65.877 69.3335 67.0693 69.3335 68.3125C69.3335 69.5557 69.8427 70.748 70.7492 71.6271C71.6556 72.5061 72.885 73 74.1668 73C75.4487 73 76.6781 72.5061 77.5845 71.6271C78.4909 70.748 79.0002 69.5557 79.0002 68.3125ZM48.3891 60.5C49.6709 60.5 50.9003 60.0061 51.8067 59.1271C52.7132 58.248 53.2224 57.0557 53.2224 55.8125C53.2224 54.5693 52.7132 53.377 51.8067 52.4979C50.9003 51.6189 49.6709 51.125 48.3891 51.125C47.1072 51.125 45.8778 51.6189 44.9714 52.4979C44.0649 53.377 43.5557 54.5693 43.5557 55.8125C43.5557 57.0557 44.0649 58.248 44.9714 59.1271C45.8778 60.0061 47.1072 60.5 48.3891 60.5ZM53.2224 68.3125C53.2224 67.0693 52.7132 65.877 51.8067 64.9979C50.9003 64.1189 49.6709 63.625 48.3891 63.625C47.1072 63.625 45.8778 64.1189 44.9714 64.9979C44.0649 65.877 43.5557 67.0693 43.5557 68.3125C43.5557 69.5557 44.0649 70.748 44.9714 71.6271C45.8778 72.5061 47.1072 73 48.3891 73C49.6709 73 50.9003 72.5061 51.8067 71.6271C52.7132 70.748 53.2224 69.5557 53.2224 68.3125ZM35.5002 73C36.782 73 38.0114 72.5061 38.9179 71.6271C39.8243 70.748 40.3335 69.5557 40.3335 68.3125C40.3335 67.0693 39.8243 65.877 38.9179 64.9979C38.0114 64.1189 36.782 63.625 35.5002 63.625C34.2183 63.625 32.9889 64.1189 32.0825 64.9979C31.1761 65.877 30.6668 67.0693 30.6668 68.3125C30.6668 69.5557 31.1761 70.748 32.0825 71.6271C32.9889 72.5061 34.2183 73 35.5002 73ZM79.0002 55.8125C79.0002 54.5693 78.4909 53.377 77.5845 52.4979C76.6781 51.6189 75.4487 51.125 74.1668 51.125C72.885 51.125 71.6556 51.6189 70.7492 52.4979C69.8427 53.377 69.3335 54.5693 69.3335 55.8125C69.3335 57.0557 69.8427 58.248 70.7492 59.1271C71.6556 60.0061 72.885 60.5 74.1668 60.5C75.4487 60.5 76.6781 60.0061 77.5845 59.1271C78.4909 58.248 79.0002 57.0557 79.0002 55.8125ZM74.1668 48C75.4487 48 76.6781 47.5061 77.5845 46.6271C78.4909 45.748 79.0002 44.5557 79.0002 43.3125C79.0002 42.0693 78.4909 40.877 77.5845 39.9979C76.6781 39.1189 75.4487 38.625 74.1668 38.625C72.885 38.625 71.6556 39.1189 70.7492 39.9979C69.8427 40.877 69.3335 42.0693 69.3335 43.3125C69.3335 44.5557 69.8427 45.748 70.7492 46.6271C71.6556 47.5061 72.885 48 74.1668 48Z" fill="white"/>
</g>
<defs>
<clipPath id="clip0_0_1">
<rect width="58" height="50" fill="white" transform="translate(21 23)"/>
</clipPath>
</defs>
</svg>
