<svg width="100" height="100" viewBox="0 0 100 100" fill="none" xmlns="http://www.w3.org/2000/svg">
<rect width="100" height="100" rx="50" fill="#CBBF8B"/>
<g clip-path="url(#clip0_0_1)">
<path d="M50 27.1562C36.984 27.1562 26.4375 37.1572 26.4375 49.5V53.7969C26.4375 55.2256 25.2254 56.375 23.7188 56.375C22.2121 56.375 21 55.2256 21 53.7969V49.5C21 34.3105 33.982 22 50 22C66.018 22 79 34.3105 79 49.5V64.9795C79 70.2002 74.5367 74.4326 69.0199 74.4326L56.525 74.4219C55.5848 75.958 53.8289 77 51.8125 77H48.1875C45.1855 77 42.75 74.6904 42.75 71.8438C42.75 68.9971 45.1855 66.6875 48.1875 66.6875H51.8125C53.8289 66.6875 55.5848 67.7295 56.525 69.2656L69.0312 69.2764C71.5348 69.2764 73.5625 67.3535 73.5625 64.9795V49.5C73.5625 37.1572 63.016 27.1562 50 27.1562ZM37.3125 44.3438H39.125C41.1301 44.3438 42.75 45.8799 42.75 47.7812V59.8125C42.75 61.7139 41.1301 63.25 39.125 63.25H37.3125C33.3137 63.25 30.0625 60.167 30.0625 56.375V51.2188C30.0625 47.4268 33.3137 44.3438 37.3125 44.3438ZM62.6875 44.3438C66.6863 44.3438 69.9375 47.4268 69.9375 51.2188V56.375C69.9375 60.167 66.6863 63.25 62.6875 63.25H60.875C58.8699 63.25 57.25 61.7139 57.25 59.8125V47.7812C57.25 45.8799 58.8699 44.3438 60.875 44.3438H62.6875Z" fill="#264653"/>
</g>
<defs>
<clipPath id="clip0_0_1">
<rect width="58" height="55" fill="white" transform="translate(21 22)"/>
</clipPath>
</defs>
</svg>
