<svg width="100" height="100" viewBox="0 0 100 100" fill="none" xmlns="http://www.w3.org/2000/svg">
<rect width="100" height="100" rx="50" fill="#264653"/>
<g clip-path="url(#clip0_0_1)">
<path d="M57.0914 23.01C55.6753 21.6672 53.3757 21.6672 51.9597 23.01L38.366 35.9006C36.95 37.2434 36.95 39.4241 38.366 40.7668L40.1785 42.4856C41.5945 43.8284 43.8941 43.8284 45.3101 42.4856L45.7632 42.0559L57.8617 53.5178L57.4085 53.9475C55.9925 55.2903 55.9925 57.4709 57.4085 58.8137L59.221 60.5325C60.6371 61.8752 62.9367 61.8752 64.3527 60.5325L77.9464 47.6418C79.3625 46.2991 79.3625 44.1184 77.9464 42.7756L76.1339 41.0569C74.7179 39.7141 72.4183 39.7141 71.0023 41.0569L70.5492 41.4866L58.4507 30.0139L58.9039 29.5842C60.3199 28.2415 60.3199 26.0608 58.9039 24.718L57.0914 22.9993V23.01ZM39.8726 53.9475C38.4566 52.6047 36.157 52.6047 34.741 53.9475L22.0535 65.9788C20.6375 67.3215 20.6375 69.5022 22.0535 70.845L27.491 76.0012C28.907 77.344 31.2066 77.344 32.6226 76.0012L45.3101 63.97C46.7261 62.6272 46.7261 60.4465 45.3101 59.1038L45.1515 58.9534L51.8125 52.6477L46.6808 47.7815L40.0312 54.0872L39.8726 53.9368V53.9475Z" fill="white"/>
</g>
<defs>
<clipPath id="clip0_0_1">
<rect width="58" height="55" fill="white" transform="translate(21 22)"/>
</clipPath>
</defs>
</svg>
