<svg width="100" height="100" viewBox="0 0 100 100" fill="none" xmlns="http://www.w3.org/2000/svg">
<rect width="100" height="100" rx="50" fill="#264653"/>
<g clip-path="url(#clip0_0_1)">
<path d="M35.7143 22C29.7991 22 25 26.6191 25 32.3125V66.6875C25 72.3809 29.7991 77 35.7143 77H67.8571H71.4286C73.404 77 75 75.4639 75 73.5625C75 71.6611 73.404 70.125 71.4286 70.125V63.25C73.404 63.25 75 61.7139 75 59.8125V25.4375C75 23.5361 73.404 22 71.4286 22H67.8571H35.7143ZM35.7143 63.25H64.2857V70.125H35.7143C33.7388 70.125 32.1429 68.5889 32.1429 66.6875C32.1429 64.7861 33.7388 63.25 35.7143 63.25ZM39.2857 37.4688C39.2857 36.5234 40.0893 35.75 41.0714 35.75H62.5C63.4821 35.75 64.2857 36.5234 64.2857 37.4688C64.2857 38.4141 63.4821 39.1875 62.5 39.1875H41.0714C40.0893 39.1875 39.2857 38.4141 39.2857 37.4688ZM41.0714 42.625H62.5C63.4821 42.625 64.2857 43.3984 64.2857 44.3438C64.2857 45.2891 63.4821 46.0625 62.5 46.0625H41.0714C40.0893 46.0625 39.2857 45.2891 39.2857 44.3438C39.2857 43.3984 40.0893 42.625 41.0714 42.625Z" fill="white"/>
</g>
<defs>
<clipPath id="clip0_0_1">
<rect width="50" height="55" fill="white" transform="translate(25 22)"/>
</clipPath>
</defs>
</svg>
