<?xml version="1.0" encoding="UTF-8"?>
<svg version="1.1" xmlns="http://www.w3.org/2000/svg" width="1042" height="626">
<path d="M0 0 C4.10390623 0.56328125 5.65553345 2.37322272 8.1875 5.4375 C10.52390698 8.68126378 12.70036605 12.02131884 14.875 15.375 C20.45923717 23.87115448 26.12974204 32.26973646 32.1875 40.4375 C32.77088135 41.26660889 33.3542627 42.09571777 33.95532227 42.94995117 C40.9024372 50.69184706 54.6428499 51.8154051 64.375 53.625 C66.95381549 54.10918188 69.52974035 54.60474394 72.10546875 55.10546875 C73.22719482 55.31453857 74.3489209 55.5236084 75.50463867 55.73901367 C78.1875 56.4375 78.1875 56.4375 80.1875 58.4375 C80.3125 61.5625 80.3125 61.5625 80.1875 64.4375 C76.67480166 66.55790427 73.57338122 66.84109861 69.515625 67.1484375 C68.21109375 67.25929688 66.9065625 67.37015625 65.5625 67.484375 C63.50496295 67.65062086 61.44730531 67.81177558 59.38867188 67.96386719 C49.16325524 68.73643235 41.65389278 69.37971449 34.57421875 77.16015625 C31.2155323 81.27556912 28.07336354 85.54386965 25 89.875 C24.45118164 90.64126709 23.90236328 91.40753418 23.33691406 92.19702148 C18.81998353 98.51465516 14.3404884 104.85944818 9.88208008 111.21850586 C6.29013342 116.33486658 6.29013342 116.33486658 5.1875 117.4375 C-1.16256476 117.90787517 -1.16256476 117.90787517 -3.54795837 116.1815033 C-5.58715561 113.36912715 -4.80121451 111.15928899 -4.30838013 107.86550903 C-3.53760745 104.09152633 -2.38612974 100.52500942 -1.08984375 96.90234375 C-0.82490616 96.13821671 -0.55996857 95.37408966 -0.28700256 94.58680725 C0.54984425 92.17968328 1.39964463 89.77738064 2.25 87.375 C2.82443577 85.7301206 3.39801138 84.08494055 3.97070312 82.43945312 C5.36639528 78.43526207 6.77371259 74.435336 8.1875 70.4375 C-47.96648929 73.35366664 -97.13786401 89.15741515 -137.8125 129.4375 C-138.71597168 130.32332764 -138.71597168 130.32332764 -139.63769531 131.22705078 C-144.79404825 136.31877743 -149.34360226 141.73161136 -153.8125 147.4375 C-154.23547363 147.97342773 -154.65844727 148.50935547 -155.09423828 149.06152344 C-187.45048182 190.38626936 -199.88407566 241.18691946 -194.09375 293.046875 C-193.25283821 299.23083842 -192.13705987 305.33977088 -190.8125 311.4375 C-190.53164551 312.7359082 -190.53164551 312.7359082 -190.24511719 314.06054688 C-186.19263016 332.10426285 -179.58528659 349.18442669 -170.8125 365.4375 C-170.00039062 366.97083984 -170.00039062 366.97083984 -169.171875 368.53515625 C-161.60045213 382.18944556 -151.62176839 394.24390206 -140.8125 405.4375 C-139.61560547 406.71173828 -139.61560547 406.71173828 -138.39453125 408.01171875 C-103.13270129 444.65410975 -52.39308782 465.14522814 -1.97265625 466.4375 C61.42430894 467.02305666 116.84376231 445.30248449 168.1875 409.4375 C168.1875 413.45494904 166.78032783 414.29924733 164.0625 417.1875 C161.3390754 420.11486279 158.65754986 423.03122026 156.125 426.125 C152.81648965 429.98790938 149.10242906 433.20156645 145.1875 436.4375 C144.67574219 436.86691895 144.16398437 437.29633789 143.63671875 437.73876953 C107.73664391 467.76897581 60.8208636 488.19274955 13.5078125 488.67578125 C12.70584946 488.68562042 11.90388641 488.69545959 11.07762146 488.70559692 C-37.22611604 489.17534231 -85.23315396 478.71695774 -124.8125 449.4375 C-125.83859375 448.68210937 -126.8646875 447.92671875 -127.921875 447.1484375 C-143.19625115 435.72078817 -156.89128641 423.36529833 -168.8125 408.4375 C-169.47121094 407.64601563 -170.12992188 406.85453125 -170.80859375 406.0390625 C-208.03273313 360.95066832 -222.3868802 301.88784894 -217.03881836 244.35229492 C-211.07082588 189.52888107 -184.10121544 136.25444662 -141.375 100.8125 C-139.52790011 99.34522629 -137.67370411 97.88684102 -135.8125 96.4375 C-134.46285156 95.36242187 -134.46285156 95.36242187 -133.0859375 94.265625 C-124.45693959 87.56210596 -115.23900207 81.93945613 -105.8125 76.4375 C-105.18504883 76.06737793 -104.55759766 75.69725586 -103.91113281 75.31591797 C-72.42895351 56.92970287 -34.64512606 48.33569934 1.61328125 48.421875 C2.85118408 48.42413086 4.08908691 48.42638672 5.36450195 48.42871094 C6.76188599 48.43306152 6.76188599 48.43306152 8.1875 48.4375 C7.65008179 46.92397949 7.65008179 46.92397949 7.10180664 45.37988281 C5.77116383 41.63086856 4.44295686 37.88099517 3.11547852 34.13085938 C2.54094629 32.50887955 1.96575657 30.88713247 1.38989258 29.265625 C0.56157623 26.93290321 -0.26436056 24.59935062 -1.08984375 22.265625 C-1.34716782 21.54256165 -1.60449188 20.81949829 -1.86961365 20.07452393 C-4.07649467 13.82250406 -5.13245478 9.04989885 -4.8125 2.4375 C-2.8125 0.4375 -2.8125 0.4375 0 0 Z " fill="#E48D26" transform="translate(295.8125,68.5625)"/>
<path d="M0 0 C2.31 0 4.62 0 7 0 C10.31442063 11.72862456 13.6266455 23.45786829 16.9375 35.1875 C17.18468906 36.0631813 17.43187813 36.93886261 17.68655777 37.84107971 C25.44854502 65.33991498 33.16499561 92.85095266 40.80639648 120.38354492 C41.13794739 121.5768895 41.46949829 122.77023407 41.81109619 123.9997406 C42.41835681 126.18581059 43.02476568 128.37211747 43.63006592 130.55873108 C44.41237616 133.37470644 45.20529928 136.18750079 46 139 C46.38679428 140.40977112 46.38679428 140.40977112 46.78140259 141.84802246 C47.03505585 142.74412231 47.28870911 143.64022217 47.55004883 144.56347656 C47.77098709 145.35739807 47.99192535 146.15131958 48.21955872 146.96929932 C49.40725378 150.0596704 51.16247567 151.40821806 54 153 C56.18214568 153.77833534 56.18214568 153.77833534 58 154 C58 156.31 58 158.62 58 161 C43.48 161 28.96 161 14 161 C14 158.69 14 156.38 14 154 C15.134375 153.71125 16.26875 153.4225 17.4375 153.125 C18.613125 152.75375 19.78875 152.3825 21 152 C22.4444786 149.11104281 21.55579145 147.62138302 20.625 144.5625 C14.84121869 128.18814617 -0.5075897 117.80408323 -15.49438477 110.46020508 C-21.61986899 107.57150463 -27.27721775 105.80673387 -34 105 C-34.09982178 105.81839355 -34.19964355 106.63678711 -34.30249023 107.47998047 C-35.13296044 111.6709918 -36.56199636 115.37130113 -38.16015625 119.3203125 C-38.79493302 120.92317267 -39.4296983 122.52603739 -40.06445312 124.12890625 C-41.06563032 126.63566677 -42.06911112 129.14149188 -43.07348633 131.64697266 C-44.04548512 134.07756362 -45.00933129 136.51127359 -45.97265625 138.9453125 C-46.42730003 140.06729538 -46.42730003 140.06729538 -46.89112854 141.21194458 C-48.28361375 144.73548412 -49 147.1585049 -49 151 C-43.72086547 153.08386889 -38.60461531 153.57910004 -33 154 C-33 156.31 -33 158.62 -33 161 C-47.52 161 -62.04 161 -77 161 C-77 158.69 -77 156.38 -77 154 C-76.13117188 153.89042969 -75.26234375 153.78085937 -74.3671875 153.66796875 C-65.57799868 152.83827829 -65.57799868 152.83827829 -58 149 C-56.81364048 146.66672692 -56.81364048 146.66672692 -55.73828125 143.87890625 C-55.30402832 142.80157227 -54.86977539 141.72423828 -54.42236328 140.61425781 C-53.9529834 139.42155273 -53.48360352 138.22884766 -53 137 C-52.75127136 136.37001099 -52.50254272 135.74002197 -52.24627686 135.09094238 C-50.64686203 131.03508969 -49.06620422 126.97221415 -47.49584961 122.9050293 C-46.67348973 120.77623239 -45.84760924 118.64882265 -45.02148438 116.52148438 C-44.49718815 115.16674702 -43.97309172 113.81193233 -43.44921875 112.45703125 C-42.74285278 110.6313562 -42.74285278 110.6313562 -42.0222168 108.76879883 C-40.9422764 106.33556023 -40.9422764 106.33556023 -41 105 C-47.37094261 106.97718909 -50.47221494 109.14880172 -55 114 C-55.66 114 -56.32 114 -57 114 C-57.375 111.3125 -57.375 111.3125 -57 108 C-51.91025839 102.37449612 -45.04196187 100.34732062 -38 98 C-36.70955236 95.67086929 -36.70955236 95.67086929 -35.63671875 92.6875 C-35.17249512 91.49374756 -34.70827148 90.29999512 -34.22998047 89.07006836 C-33.71565105 87.71344307 -33.20149738 86.35675113 -32.6875 85 C-32.14051402 83.58106474 -31.5924628 82.16253976 -31.04345703 80.74438477 C-29.7747903 77.46104417 -28.5135797 74.1749426 -27.25634766 70.88720703 C-24.88589171 64.69354714 -22.49320221 58.50852803 -20.09924507 52.32392502 C-15.94147247 41.58212305 -11.79020296 30.83782837 -7.6484375 20.08984375 C-7.22390793 18.98889877 -6.79937836 17.8879538 -6.36198425 16.75364685 C-4.21468789 11.17876876 -2.08680568 5.59781199 0 0 Z M-9 41 C-11.65400895 47.8123741 -14.30459965 54.62607107 -16.95288086 61.44067383 C-17.85314598 63.75608008 -18.75417708 66.07118866 -19.65600586 68.38598633 C-20.95630881 71.72398102 -22.25380245 75.06305628 -23.55078125 78.40234375 C-24.15095818 79.94038918 -24.15095818 79.94038918 -24.76325989 81.50950623 C-27.00660492 87.294412 -29.08922253 93.09663297 -31 99 C-29.42025391 99.23783203 -29.42025391 99.23783203 -27.80859375 99.48046875 C-13.69019698 101.71871097 -0.9213788 105.77099284 12 112 C8.74954623 98.51571612 5.09466453 85.1447756 1.39941406 71.77661133 C0.70933399 69.2746599 0.02288203 66.77170528 -0.66015625 64.26782227 C-1.6537683 60.62560129 -2.65765225 56.98635865 -3.6640625 53.34765625 C-4.12191635 51.65891136 -4.12191635 51.65891136 -4.58901978 49.93605042 C-4.87626923 48.90664841 -5.16351868 47.8772464 -5.45947266 46.81665039 C-5.70944 45.90782608 -5.95940735 44.99900177 -6.21694946 44.06263733 C-6.80337912 41.81603047 -6.80337912 41.81603047 -9 41 Z " fill="#292E7A" transform="translate(414,149)"/>
<path d="M0 0 C7.66798492 -0.07635033 15.335871 -0.12872587 23.00415039 -0.16479492 C25.61030745 -0.17983884 28.21643937 -0.20027895 30.82250977 -0.22631836 C34.57835105 -0.26289424 38.33385624 -0.27977095 42.08984375 -0.29296875 C43.24645004 -0.30845261 44.40305634 -0.32393646 45.5947113 -0.33988953 C56.63252975 -0.34216229 63.71412284 1.77629692 71.76171875 9.4609375 C76.40595807 14.72927181 79.5385345 20.92419569 80 28 C80.0825 29.216875 80.165 30.43375 80.25 31.6875 C80.04764466 41.32697269 76.84340574 49.20943909 70 56 C64.90932233 60.19126465 60.35564467 62.24385941 54 64 C54.66418945 65.36596313 54.66418945 65.36596313 55.34179688 66.75952148 C57.02309 70.21797812 58.70296975 73.6771198 60.38247681 77.13644409 C61.12524825 78.66586078 61.86838976 80.19509781 62.61190796 81.72415161 C69.77713661 96.46079028 69.77713661 96.46079028 72.73828125 102.90625 C73.10179687 103.69717041 73.4653125 104.48809082 73.83984375 105.30297852 C74.46860435 106.68281133 75.09021421 108.06593498 75.703125 109.45288086 C77.18335118 112.70415517 77.93175743 113.95450495 81 116 C82.65549531 116.38499891 84.3222433 116.72793135 86 117 C86 118.65 86 120.3 86 122 C74.78 122 63.56 122 52 122 C52 120.35 52 118.7 52 117 C52.99 116.67 53.98 116.34 55 116 C52.65674447 108.22765244 49.33107778 101.14904835 45.75 93.875 C39.03547145 80.19406386 39.03547145 80.19406386 36.80078125 74.9375 C36.4975293 74.23383301 36.19427734 73.53016602 35.88183594 72.80517578 C35.12425317 71.02047693 34.39109061 69.22546494 33.66015625 67.4296875 C33.11230469 66.62789063 32.56445312 65.82609375 32 65 C30.02 64.67 28.04 64.34 26 64 C26.33 80.5 26.66 97 27 114 C29.31 114.99 31.62 115.98 34 117 C34 118.65 34 120.3 34 122 C22.78 122 11.56 122 0 122 C0 120.35 0 118.7 0 117 C1.98 116.01 3.96 115.02 6 114 C6 79.02 6 44.04 6 8 C4.02 7.01 2.04 6.02 0 5 C0 3.35 0 1.7 0 0 Z M27 7 C25.76919491 9.46161017 25.87956023 11.06496993 25.88647461 13.81689453 C25.88655014 14.81778107 25.88662567 15.8186676 25.88670349 16.84988403 C25.89186478 17.93325043 25.89702606 19.01661682 25.90234375 20.1328125 C25.9037587 21.23978485 25.90517365 22.3467572 25.90663147 23.48727417 C25.91224228 27.03320993 25.92479663 30.57908323 25.9375 34.125 C25.94251361 36.52473867 25.94707675 38.92447833 25.95117188 41.32421875 C25.96221522 47.21616725 25.9789639 53.10807916 26 59 C29.72890255 59.1164862 33.45733514 59.18734576 37.1875 59.25 C38.24259766 59.28351563 39.29769531 59.31703125 40.38476562 59.3515625 C46.57366067 59.48474354 46.57366067 59.48474354 52.1574707 57.1027832 C53.85790476 55.16216593 55.10045385 53.51824087 56.1875 51.1875 C56.49042969 50.56230469 56.79335938 49.93710938 57.10546875 49.29296875 C61.34161725 38.43436976 61.85378561 26.17476735 57.28125 15.34765625 C55.02723253 11.21758155 52.28934285 7.14467142 48 5 C45.38315357 4.87511166 42.80451082 4.81483037 40.1875 4.8125 C39.47529297 4.80025391 38.76308594 4.78800781 38.02929688 4.77539062 C33.92225188 4.76399272 30.63903552 5.02452357 27 7 Z " fill="#292E7A" transform="translate(579,188)"/>
<path d="M0 0 C4.5895203 -0.22340401 9.17584819 -0.38617929 13.76953125 -0.49438477 C15.32966242 -0.5395005 16.88941597 -0.60081719 18.44824219 -0.67895508 C31.28345722 -1.30596271 31.28345722 -1.30596271 35.13427734 1.6237793 C36.73544782 3.99928632 37.84581547 6.37922538 39 9 C40.15035372 10.8989406 41.32647813 12.78243003 42.5234375 14.65234375 C43.80897101 16.7463658 45.09274327 18.84146984 46.375 20.9375 C47.07444008 22.07783194 47.77406982 23.21804757 48.47387695 24.3581543 C49.92522668 26.72301261 51.37576943 29.08836283 52.82568359 31.45410156 C56.27298734 37.07764692 59.73056398 42.69487281 63.1875 48.3125 C64.07477783 49.75580688 64.07477783 49.75580688 64.97998047 51.22827148 C71.29762585 61.49933703 77.65012002 71.74884393 84 82 C84.06941713 72.51656046 84.12276888 63.03320797 84.15543652 53.54957008 C84.17111294 49.14623689 84.19238698 44.74307712 84.22631836 40.33984375 C84.25884175 36.09289209 84.27683811 31.84610754 84.28463173 27.59904099 C84.29018792 25.97625471 84.30103743 24.35347788 84.31719017 22.73076248 C84.33887178 20.4630459 84.34197091 18.19602569 84.34057617 15.92822266 C84.34723801 14.63582672 84.35389984 13.34343079 84.36076355 12.01187134 C84.24171158 11.0179538 84.12265961 10.02403625 84 9 C80.85426323 6.90284215 78.98543749 6.47995441 75.3125 5.875 C74.31863281 5.70742187 73.32476563 5.53984375 72.30078125 5.3671875 C71.54152344 5.24601563 70.78226563 5.12484375 70 5 C70 3.35 70 1.7 70 0 C81.22 0 92.44 0 104 0 C104 1.65 104 3.3 104 5 C102.71802734 5.30744141 102.71802734 5.30744141 101.41015625 5.62109375 C100.30542969 5.89050781 99.20070313 6.15992188 98.0625 6.4375 C96.96035156 6.70433594 95.85820313 6.97117188 94.72265625 7.24609375 C92.10578746 7.72995725 92.10578746 7.72995725 91 9 C90.89224086 10.46705061 90.8531844 11.9392128 90.84178162 13.41017151 C90.8319928 14.36234558 90.82220398 15.31451965 90.81211853 16.29554749 C90.80636307 17.34858566 90.8006076 18.40162384 90.79467773 19.48657227 C90.78477814 20.58887177 90.77487854 21.69117126 90.76467896 22.82687378 C90.73295513 26.49002902 90.70826367 30.15319726 90.68359375 33.81640625 C90.66303361 36.3484685 90.6420374 38.88052725 90.62062073 41.4125824 C90.57096461 47.40845003 90.52572459 53.40433542 90.48259836 59.40025228 C90.43326728 66.2248451 90.37833389 73.04938916 90.32291877 79.87393486 C90.20902442 93.91591111 90.10220169 107.95793413 90 122 C87.10525513 122.1073761 87.10525513 122.1073761 84 122 C82.31591797 120.28198242 82.31591797 120.28198242 80.9921875 117.85546875 C80.48719727 116.96134277 79.98220703 116.0672168 79.46191406 115.14599609 C78.93823242 114.16969238 78.41455078 113.19338867 77.875 112.1875 C76.72393696 110.14047261 75.57024578 108.09492104 74.4140625 106.05078125 C73.55216309 104.50898193 73.55216309 104.50898193 72.67285156 102.93603516 C70.33172946 98.82711304 67.81082274 94.84935817 65.25 90.875 C60.23663289 83.02868794 55.38170259 75.09130894 50.5625 67.125 C44.94379876 57.83767789 39.29469721 48.57144508 33.54907227 39.36181641 C30.4176422 34.33155759 27.34940944 29.2658863 24.3046875 24.18286133 C23.88952881 23.49032509 23.47437012 22.79778885 23.04663086 22.08426666 C22.03081598 20.38967368 21.01537036 18.69485936 20 17 C19.88428511 29.46493354 19.7953754 41.92973988 19.74093914 54.39510059 C19.71481586 60.18294522 19.67936738 65.97042311 19.62280273 71.75805664 C19.56858128 77.34070642 19.53860006 82.9230029 19.52561378 88.50589561 C19.51635621 90.6386541 19.49827876 92.77139267 19.47134972 94.90400124 C19.43519098 97.88540458 19.43004918 100.86533745 19.43237305 103.84692383 C19.41439667 104.7338089 19.39642029 105.62069397 19.37789917 106.53445435 C19.39708608 108.80082862 19.4499286 110.80146047 20 113 C22.9510288 115.5131028 25.48817196 116.3634044 29.3125 116.6875 C30.529375 116.790625 31.74625 116.89375 33 117 C33 118.65 33 120.3 33 122 C22.11 122 11.22 122 0 122 C0 120.35 0 118.7 0 117 C0.77085937 116.87882812 1.54171875 116.75765625 2.3359375 116.6328125 C3.33882812 116.46523438 4.34171875 116.29765625 5.375 116.125 C6.37273438 115.96257812 7.37046875 115.80015625 8.3984375 115.6328125 C11.1425115 115.2041198 11.1425115 115.2041198 13 113 C13.29726275 111.06099373 13.29726275 111.06099373 13.24050903 108.81124878 C13.24325836 107.93342743 13.24600769 107.05560608 13.24884033 106.15118408 C13.24164978 105.18589783 13.23445923 104.22061157 13.22705078 103.22607422 C13.22734283 102.21141083 13.22763489 101.19674744 13.22793579 100.15133667 C13.22653852 96.78570101 13.2109586 93.42028466 13.1953125 90.0546875 C13.19158378 87.72584148 13.18873615 85.3969939 13.18673706 83.06814575 C13.17908949 76.92946057 13.15943134 70.79086957 13.1373291 64.65222168 C13.11689486 58.39185867 13.10774053 52.13148048 13.09765625 45.87109375 C13.07618652 33.58068772 13.04203703 21.29035168 13 9 C11.37384766 8.27876953 11.37384766 8.27876953 9.71484375 7.54296875 C9.10503662 7.27250732 8.49522949 7.0020459 7.86694336 6.72338867 C5.2960254 5.7272294 2.72723838 5.33259005 0 5 C0 3.35 0 1.7 0 0 Z " fill="#292E7A" transform="translate(847,188)"/>
<path d="M0 0 C1.88648232 2.91628852 2.88279063 6.08727877 3.9387207 9.36889648 C4.18496689 10.11033905 4.43121307 10.85178162 4.68492126 11.61569214 C5.48081902 14.02131251 6.26312998 16.43107761 7.04418945 18.84155273 C7.58386199 20.4890524 8.12390158 22.13643187 8.66430664 23.78369141 C10.20214987 28.48556973 11.71900315 33.19403299 13.23168945 37.90405273 C13.79799072 39.65733887 13.79799072 39.65733887 14.37573242 41.44604492 C15.25923333 44.198541 16.12655598 46.95513319 16.98168945 49.71655273 C17.22121338 50.47121826 17.4607373 51.22588379 17.70751953 52.00341797 C19.05929627 56.50048487 19.44989813 60.26711835 19.23168945 64.90405273 C13.33378519 68.42173135 6.88010837 69.56227295 0.23168945 71.02905273 C-0.93104492 71.29331055 -2.0937793 71.55756836 -3.29174805 71.82983398 C-19.85270679 75.56268166 -19.85270679 75.56268166 -26.76831055 74.90405273 C-30.85501171 71.5329324 -32.76356542 68.31541086 -34.63549805 63.40795898 C-34.87618011 62.78602158 -35.11686218 62.16408417 -35.36483765 61.52330017 C-36.13884773 59.50957107 -36.89205192 57.48886877 -37.64331055 55.46655273 C-38.17128956 54.07059027 -38.69961251 52.67475784 -39.22827148 51.27905273 C-42.32575571 43.04568214 -45.29339292 34.76886534 -48.01831055 26.40405273 C-48.30561035 25.53466064 -48.59291016 24.66526855 -48.88891602 23.76953125 C-50.39489619 18.95984884 -51.06633599 14.94339204 -50.76831055 9.90405273 C-46.11600522 7.36618249 -41.64975044 5.88738873 -36.5534668 4.60717773 C-35.39251747 4.31034088 -35.39251747 4.31034088 -34.20811462 4.00750732 C-32.57944689 3.59387417 -30.94983037 3.18396075 -29.31933594 2.77758789 C-26.83809086 2.15587692 -24.36296048 1.51301531 -21.88745117 0.86889648 C-20.29728471 0.4678528 -18.70679942 0.06807073 -17.1159668 -0.33032227 C-16.0172097 -0.61924347 -16.0172097 -0.61924347 -14.89625549 -0.91400146 C-9.78768993 -2.15736653 -4.72295165 -2.92714759 0 0 Z " fill="#2A77BB" transform="translate(270.768310546875,338.095947265625)"/>
<path d="M0 0 C1.23085327 0.01232666 1.23085327 0.01232666 2.48657227 0.02490234 C3.41308594 0.02723877 4.33959961 0.0295752 5.29418945 0.03198242 C6.28708984 0.05800537 7.27999023 0.08402832 8.30297852 0.11083984 C9.82906738 0.13343872 9.82906738 0.13343872 11.38598633 0.15649414 C18.31259216 0.30532053 25.21494026 0.68271174 32.11547852 1.29833984 C33.3731604 1.40299561 33.3731604 1.40299561 34.65625 1.50976562 C40.37443073 2.1074269 40.37443073 2.1074269 42.53759766 3.77441406 C44.07490154 5.75575259 44.48725681 7.14738609 44.97094727 9.59912109 C45.14561523 10.42420166 45.3202832 11.24928223 45.50024414 12.09936523 C45.77384766 13.43535767 45.77384766 13.43535767 46.05297852 14.79833984 C49.15569302 28.84252746 54.04835079 42.22272466 59.86547852 55.36083984 C61.8784017 60.0060472 62.34915541 63.45560017 61.86547852 68.48583984 C57.62640537 70.08714407 54.13552564 70.73386331 49.61157227 70.71630859 C48.4262793 70.714375 47.24098633 70.71244141 46.01977539 70.71044922 C44.79323242 70.69820313 43.56668945 70.68595703 42.30297852 70.67333984 C41.10350586 70.67269531 39.9040332 70.67205078 38.66821289 70.67138672 C35.06478318 70.6538849 31.46753769 70.58552873 27.86547852 70.48583984 C26.66938965 70.45441895 25.47330078 70.42299805 24.2409668 70.390625 C23.09740723 70.33567871 21.95384766 70.28073242 20.77563477 70.22412109 C19.75735596 70.17940674 18.73907715 70.13469238 17.68994141 70.08862305 C14.17326447 69.33811087 12.44610232 67.95102286 9.86547852 65.48583984 C0.49279791 49.01605734 -6.42684616 23.44929981 -5.13452148 4.48583984 C-3.66902661 1.92510194 -2.93461014 0.66794855 0 0 Z " fill="#2B7DBF" transform="translate(168.134521484375,345.51416015625)"/>
<path d="M0 0 C23.1 0 46.2 0 70 0 C70 6.27 70 12.54 70 19 C68.68 19 67.36 19 66 19 C65.81824219 18.22914063 65.63648438 17.45828125 65.44921875 16.6640625 C65.19785156 15.66117188 64.94648437 14.65828125 64.6875 13.625 C64.44386719 12.62726563 64.20023438 11.62953125 63.94921875 10.6015625 C63.17806142 7.6915014 63.17806142 7.6915014 60 6 C55.71509088 5.61374016 51.42125648 5.67081309 47.12109375 5.68432617 C45.0072895 5.68748909 42.89488154 5.66400987 40.78125 5.63867188 C39.43750176 5.63639905 38.09374977 5.63569531 36.75 5.63671875 C34.91695312 5.63224731 34.91695312 5.63224731 33.046875 5.62768555 C30.07231425 5.7398693 30.07231425 5.7398693 28.33659363 7.21511841 C26.57989654 9.56100442 26.60435711 11.01404537 26.56762695 13.93041992 C26.54783279 14.93123093 26.52803864 15.93204193 26.50764465 16.96318054 C26.49805977 18.5804882 26.49805977 18.5804882 26.48828125 20.23046875 C26.47033005 21.33602615 26.45237885 22.44158356 26.43388367 23.5806427 C26.37964573 27.11622285 26.34584108 30.65166696 26.3125 34.1875 C26.27933891 36.58270128 26.2448504 38.97788457 26.20898438 41.37304688 C26.12391154 47.24857594 26.05561882 53.12412232 26 59 C30.22994309 58.91899061 34.45845865 58.80615495 38.6875 58.6875 C40.48477539 58.65366211 40.48477539 58.65366211 42.31835938 58.61914062 C43.47529297 58.58369141 44.63222656 58.54824219 45.82421875 58.51171875 C46.88729248 58.48553467 47.95036621 58.45935059 49.0456543 58.43237305 C52.39362884 57.94239181 54.31607734 57.04146714 57 55 C57.33 54.01 57.66 53.02 58 52 C59.65 52 61.3 52 63 52 C63 57.94 63 63.88 63 70 C61.35 70 59.7 70 58 70 C57.566875 69.0409375 57.566875 69.0409375 57.125 68.0625 C56.17176549 65.84793921 56.17176549 65.84793921 54 65 C51.89625004 64.84558791 49.78804881 64.75007361 47.6796875 64.68359375 C46.42285156 64.64169922 45.16601562 64.59980469 43.87109375 64.55664062 C42.55238281 64.51732422 41.23367188 64.47800781 39.875 64.4375 C38.53514249 64.39430488 37.19529844 64.35069027 35.85546875 64.30664062 C32.57042185 64.20029019 29.28529719 64.09826192 26 64 C26.09211234 71.08439109 26.19939662 78.16843426 26.31738281 85.25244141 C26.35573647 87.66384628 26.3905779 90.07530962 26.421875 92.48681641 C26.46738703 95.94715313 26.52540404 99.40708508 26.5859375 102.8671875 C26.59748871 103.95055389 26.60903992 105.03392029 26.62094116 106.15011597 C26.64081085 107.1510025 26.66068054 108.15188904 26.68115234 109.18310547 C26.69447601 110.06690887 26.70779968 110.95071228 26.7215271 111.86129761 C26.80669004 114.2132825 26.80669004 114.2132825 29 116 C32.15777429 116.31252437 32.15777429 116.31252437 35.87109375 116.265625 C36.54922623 116.26753845 37.2273587 116.2694519 37.92604065 116.27142334 C39.36093517 116.27278481 40.79584201 116.26909099 42.23071289 116.26074219 C44.42557542 116.25005805 46.6196164 116.26062956 48.81445312 116.2734375 C50.20833514 116.27211557 51.60221664 116.26955249 52.99609375 116.265625 C54.26638428 116.26336914 55.5366748 116.26111328 56.84545898 116.25878906 C60.15998751 116.2434841 60.15998751 116.2434841 63 114 C64.01752555 111.35952748 64.01752555 111.35952748 64.6875 108.375 C64.93886719 107.37210937 65.19023438 106.36921875 65.44921875 105.3359375 C65.63097656 104.56507813 65.81273437 103.79421875 66 103 C67.32 103 68.64 103 70 103 C70 109.27 70 115.54 70 122 C46.9 122 23.8 122 0 122 C0 120.35 0 118.7 0 117 C1.175625 116.5978125 1.175625 116.5978125 2.375 116.1875 C5.28114923 115.15185568 5.28114923 115.15185568 7 112 C7.30230338 109.98448405 7.30230338 109.98448405 7.26069641 107.74914551 C7.26778122 106.88269913 7.27486603 106.01625275 7.28216553 105.12355042 C7.27968811 104.17592331 7.27721069 103.2282962 7.2746582 102.25195312 C7.27976913 101.25171616 7.28488007 100.25147919 7.29014587 99.22093201 C7.30407025 95.90764417 7.30308312 92.59456365 7.30078125 89.28125 C7.30466627 86.98343834 7.30900053 84.68562739 7.31376648 82.38781738 C7.32123457 77.56923088 7.32093288 72.75071765 7.31567383 67.93212891 C7.3098748 61.74782134 7.32681802 55.56381284 7.3500185 49.37955475 C7.36472681 44.63387286 7.36563156 39.88826351 7.36250877 35.14256287 C7.36302333 32.86192736 7.36828605 30.58128793 7.37832069 28.30067444 C7.39061307 25.11626553 7.38393687 21.93244586 7.37231445 18.74804688 C7.38378006 17.32660622 7.38378006 17.32660622 7.39547729 15.87644958 C7.38846298 15.0100032 7.38144867 14.14355682 7.3742218 13.25085449 C7.37438954 12.49795891 7.37455729 11.74506332 7.37473011 10.96935272 C6.8952011 8.44924093 5.98745098 7.57348597 4 6 C1.89667109 5.28552357 1.89667109 5.28552357 0 5 C0 3.35 0 1.7 0 0 Z " fill="#292E7A" transform="translate(677,188)"/>
<path d="M0 0 C23.1 0 46.2 0 70 0 C70 6.27 70 12.54 70 19 C68.68 19 67.36 19 66 19 C65.81824219 18.22914063 65.63648438 17.45828125 65.44921875 16.6640625 C65.19785156 15.66117188 64.94648437 14.65828125 64.6875 13.625 C64.44386719 12.62726563 64.20023438 11.62953125 63.94921875 10.6015625 C63.17806142 7.6915014 63.17806142 7.6915014 60 6 C55.71509088 5.61374016 51.42125648 5.67081309 47.12109375 5.68432617 C45.0072895 5.68748909 42.89488154 5.66400987 40.78125 5.63867188 C39.43750176 5.63639905 38.09374977 5.63569531 36.75 5.63671875 C34.91695312 5.63224731 34.91695312 5.63224731 33.046875 5.62768555 C30.07231425 5.7398693 30.07231425 5.7398693 28.33659363 7.21511841 C26.57989654 9.56100442 26.60435711 11.01404537 26.56762695 13.93041992 C26.54783279 14.93123093 26.52803864 15.93204193 26.50764465 16.96318054 C26.49805977 18.5804882 26.49805977 18.5804882 26.48828125 20.23046875 C26.47033005 21.33602615 26.45237885 22.44158356 26.43388367 23.5806427 C26.37964573 27.11622285 26.34584108 30.65166696 26.3125 34.1875 C26.27933891 36.58270128 26.2448504 38.97788457 26.20898438 41.37304688 C26.12391154 47.24857594 26.05561882 53.12412232 26 59 C30.22994309 58.91899061 34.45845865 58.80615495 38.6875 58.6875 C40.48477539 58.65366211 40.48477539 58.65366211 42.31835938 58.61914062 C43.47529297 58.58369141 44.63222656 58.54824219 45.82421875 58.51171875 C46.88729248 58.48553467 47.95036621 58.45935059 49.0456543 58.43237305 C52.39362884 57.94239181 54.31607734 57.04146714 57 55 C57.33 54.01 57.66 53.02 58 52 C59.65 52 61.3 52 63 52 C63 57.94 63 63.88 63 70 C61.35 70 59.7 70 58 70 C57.566875 69.0409375 57.566875 69.0409375 57.125 68.0625 C56.17176549 65.84793921 56.17176549 65.84793921 54 65 C51.89625004 64.84558791 49.78804881 64.75007361 47.6796875 64.68359375 C46.42285156 64.64169922 45.16601562 64.59980469 43.87109375 64.55664062 C42.55238281 64.51732422 41.23367188 64.47800781 39.875 64.4375 C38.53514249 64.39430488 37.19529844 64.35069027 35.85546875 64.30664062 C32.57042185 64.20029019 29.28529719 64.09826192 26 64 C26.09211234 71.08439109 26.19939662 78.16843426 26.31738281 85.25244141 C26.35573647 87.66384628 26.3905779 90.07530962 26.421875 92.48681641 C26.46738703 95.94715313 26.52540404 99.40708508 26.5859375 102.8671875 C26.59748871 103.95055389 26.60903992 105.03392029 26.62094116 106.15011597 C26.64081085 107.1510025 26.66068054 108.15188904 26.68115234 109.18310547 C26.69447601 110.06690887 26.70779968 110.95071228 26.7215271 111.86129761 C26.80669004 114.2132825 26.80669004 114.2132825 29 116 C33.54194989 116.42335086 38.09851304 116.37159332 42.65795898 116.37060547 C44.92573197 116.37497731 47.19155619 116.41128459 49.45898438 116.44921875 C50.89843084 116.45508722 52.33788655 116.45905641 53.77734375 116.4609375 C55.74562134 116.47326416 55.74562134 116.47326416 57.75366211 116.48583984 C61.05207747 116.31828325 61.05207747 116.31828325 62.90576172 114.11865234 C64.09515639 111.81575922 64.70129041 109.79325017 65.1875 107.25 C65.34605469 106.45078125 65.50460937 105.6515625 65.66796875 104.828125 C65.83232422 103.92320312 65.83232422 103.92320312 66 103 C67.32 103 68.64 103 70 103 C70 109.27 70 115.54 70 122 C46.9 122 23.8 122 0 122 C0 120.35 0 118.7 0 117 C1.4540625 116.5978125 1.4540625 116.5978125 2.9375 116.1875 C4.4534375 115.5996875 4.4534375 115.5996875 6 115 C6.91996947 112.2400916 7.12919898 110.594759 7.14044189 107.74914551 C7.14615204 106.88269913 7.15186218 106.01625275 7.15774536 105.12355042 C7.15886322 104.17592331 7.15998108 103.2282962 7.16113281 102.25195312 C7.16609772 101.25171616 7.17106262 100.25147919 7.17617798 99.22093201 C7.19079992 95.90769772 7.19760061 92.59451127 7.203125 89.28125 C7.20887508 86.98343911 7.21463283 84.68562824 7.22039795 82.38781738 C7.23090711 77.56925228 7.23675078 72.75070386 7.24023438 67.93212891 C7.24572817 61.7478415 7.26977557 55.56377327 7.29820633 49.37955475 C7.31679538 44.63388414 7.32203625 39.88826681 7.32357025 35.14256287 C7.32660422 32.86192116 7.33465763 30.58128055 7.34775543 28.30067444 C7.3647427 25.11629338 7.36295389 21.93245441 7.35644531 18.74804688 C7.3656601 17.80041977 7.37487488 16.85279266 7.3843689 15.87644958 C7.37601517 14.57678001 7.37601517 14.57678001 7.36749268 13.25085449 C7.36895924 12.49795891 7.3704258 11.74506332 7.3719368 10.96935272 C6.89569356 8.44771216 5.98820369 7.57367167 4 6 C1.89667109 5.28552357 1.89667109 5.28552357 0 5 C0 3.35 0 1.7 0 0 Z " fill="#292E7A" transform="translate(762,188)"/>
<path d="M0 0 C23.76 0 47.52 0 72 0 C72 6.27 72 12.54 72 19 C70.35 19 68.7 19 67 19 C66.01 13.06 66.01 13.06 65 7 C59.37821281 5.5945532 53.80562663 5.81402287 48.0456543 5.81469727 C45.9410399 5.81250369 43.83694414 5.79430602 41.73242188 5.77539062 C40.39323095 5.77245764 39.05403755 5.77047221 37.71484375 5.76953125 C36.49917725 5.76542236 35.28351074 5.76131348 34.03100586 5.75708008 C30.82266812 5.76689211 30.82266812 5.76689211 28 8 C27.52376333 10.25579898 27.52376333 10.25579898 27.56762695 12.90869141 C27.54783279 13.92959869 27.52803864 14.95050598 27.50764465 16.00234985 C27.49805977 17.66021011 27.49805977 17.66021011 27.48828125 19.3515625 C27.47033005 20.4807309 27.45237885 21.60989929 27.43388367 22.77328491 C27.37957112 26.39048493 27.34581734 30.00755146 27.3125 33.625 C27.27934548 36.07293533 27.2448576 38.520853 27.20898438 40.96875 C27.12383274 46.97904695 27.05557192 52.98936075 27 59 C31.22988149 58.9155692 35.45843333 58.80615566 39.6875 58.6875 C41.48477539 58.65366211 41.48477539 58.65366211 43.31835938 58.61914062 C44.47529297 58.58369141 45.63222656 58.54824219 46.82421875 58.51171875 C47.88729248 58.48553467 48.95036621 58.45935059 50.0456543 58.43237305 C53.39362884 57.94239181 55.31607734 57.04146714 58 55 C58.33 54.01 58.66 53.02 59 52 C60.65 52 62.3 52 64 52 C64 57.94 64 63.88 64 70 C62.35 70 60.7 70 59 70 C58.67 68.68 58.34 67.36 58 66 C54.48575476 64.94044752 51.14344126 64.80001859 47.484375 64.68359375 C46.23398437 64.64169922 44.98359375 64.59980469 43.6953125 64.55664062 C42.39335938 64.51732422 41.09140625 64.47800781 39.75 64.4375 C38.43257812 64.39431641 37.11515625 64.35113281 35.7578125 64.30664062 C32.50531212 64.20058083 29.25273608 64.09851976 26 64 C26.11753486 70.78113562 26.24236756 77.56210852 26.37231445 84.34301758 C26.41566999 86.65060365 26.4573446 88.95822194 26.49731445 91.26586914 C26.55500183 94.57968867 26.61870092 97.89334597 26.68359375 101.20703125 C26.70030624 102.2414888 26.71701874 103.27594635 26.73423767 104.3417511 C26.75418289 105.3025206 26.77412811 106.2632901 26.79467773 107.25317383 C26.81799416 108.52225334 26.81799416 108.52225334 26.84178162 109.81697083 C26.92274103 112.17959487 26.92274103 112.17959487 28 115 C31.00847418 116.22520264 31.00847418 116.22520264 34 117 C34 118.65 34 120.3 34 122 C22.78 122 11.56 122 0 122 C0 120.35 0 118.7 0 117 C2.97 116.01 2.97 116.01 6 115 C6 79.69 6 44.38 6 8 C4.02 7.01 2.04 6.02 0 5 C0 3.35 0 1.7 0 0 Z " fill="#292E7A" transform="translate(488,188)"/>
<path d="M0 0 C202.62 0 405.24 0 614 0 C614 1.65 614 3.3 614 5 C411.38 5 208.76 5 0 5 C0 3.35 0 1.7 0 0 Z " fill="#2E307E" transform="translate(342,392)"/>
<path d="M0 0 C2.94837366 2.21979172 4.88938734 4.99727271 7 8 C7.73863281 9.03382813 8.47726562 10.06765625 9.23828125 11.1328125 C16.54886652 21.62937985 22.87649996 32.77912064 29 44 C29.37189453 44.67973877 29.74378906 45.35947754 30.12695312 46.05981445 C31.53699681 49.19337629 31.42186556 51.62507553 31 55 C27.34731419 58.50049057 23.0725626 60.68022283 18.5625 62.875 C17.86455322 63.21797119 17.16660645 63.56094238 16.44750977 63.91430664 C-6.64158274 75.15199073 -6.64158274 75.15199073 -13.03393555 73.46240234 C-16.01352707 71.24611609 -16.71159681 68.22569818 -17.8046875 64.81640625 C-18.04956406 64.09305588 -18.29444061 63.36970551 -18.54673767 62.62443542 C-19.33778458 60.27515497 -20.10705198 57.91942225 -20.875 55.5625 C-21.40877798 53.95508075 -21.94352821 52.34798404 -22.47924805 50.74121094 C-23.52769742 47.58762435 -24.56679118 44.43118992 -25.59814453 41.27197266 C-26.75350458 37.73736329 -27.9437518 34.21603776 -29.15234375 30.69921875 C-29.70690833 29.04987517 -30.26043084 27.40018052 -30.8125 25.75 C-31.0604834 25.0391626 -31.3084668 24.3283252 -31.56396484 23.59594727 C-33.02992048 19.06729086 -33.38349115 15.58560375 -32 11 C-29.69921875 9.1796875 -29.69921875 9.1796875 -26.6875 7.875 C-25.60339844 7.39546875 -24.51929688 6.9159375 -23.40234375 6.421875 C-22.27957031 5.95265625 -21.15679687 5.4834375 -20 5 C-18.94941406 4.51015625 -17.89882813 4.0203125 -16.81640625 3.515625 C-6.10034365 -1.34414352 -6.10034365 -1.34414352 0 0 Z " fill="#2F9ED6" transform="translate(289,248)"/>
<path d="M0 0 C3.1811921 2.60501315 4.64515144 4.93732281 5.92285156 8.80932617 C6.24288147 9.76099167 6.56291138 10.71265717 6.89263916 11.69316101 C7.22197449 12.71609756 7.55130981 13.73903412 7.890625 14.79296875 C8.24010193 15.8535701 8.58957886 16.91417145 8.949646 18.00691223 C9.68502466 20.25011791 10.41423206 22.49535478 11.13769531 24.74243164 C12.24226431 28.16354076 13.37356429 31.57496086 14.5078125 34.98632812 C15.2203861 37.17134212 15.93137541 39.35687354 16.640625 41.54296875 C17.14677338 43.06219185 17.14677338 43.06219185 17.66314697 44.61210632 C19.57026814 50.61364032 20.73006855 55.69637731 20 62 C17.56565942 64.82605351 14.83186278 65.52993838 11.26171875 66.3515625 C10.35873047 66.56296875 9.45574219 66.774375 8.52539062 66.9921875 C7.58888672 67.20101562 6.65238281 67.40984375 5.6875 67.625 C4.76259766 67.8415625 3.83769531 68.058125 2.88476562 68.28125 C-4.25742941 69.92593457 -11.28133011 71.14715344 -18.625 71.375 C-19.71039063 71.42398438 -20.79578125 71.47296875 -21.9140625 71.5234375 C-25 71 -25 71 -27.7890625 69.2421875 C-31.11990275 64.35773979 -31.26006267 59.55064623 -31.75 53.75 C-31.9214856 51.971698 -31.9214856 51.971698 -32.09643555 50.1574707 C-32.85685208 41.84685028 -33.41249735 33.52295892 -33.8125 25.1875 C-33.86567383 24.15141602 -33.91884766 23.11533203 -33.97363281 22.04785156 C-34.32242664 12.5801417 -34.32242664 12.5801417 -32 8 C-29.29942145 5.64437115 -26.97297732 4.48780085 -23.515625 3.61328125 C-22.23558594 3.2894043 -22.23558594 3.2894043 -20.9296875 2.95898438 C-20.04539063 2.74564453 -19.16109375 2.53230469 -18.25 2.3125 C-17.38117188 2.08755859 -16.51234375 1.86261719 -15.6171875 1.63085938 C-10.28875914 0.31475357 -5.4841025 -0.59945276 0 0 Z " fill="#2F9ED6" transform="translate(245,264)"/>
<path d="M0 0 C1.74608934 2.42323683 3.14484936 4.99961215 4.5625 7.625 C8.12169553 13.94294579 11.90949389 19.97369141 16.125 25.875 C16.62805664 26.58116455 17.13111328 27.2873291 17.64941406 28.01489258 C19.91345724 31.1688038 22.2092514 34.2921042 24.57421875 37.37109375 C25.31285156 38.34175781 26.05148437 39.31242187 26.8125 40.3125 C27.45832031 41.13363281 28.10414063 41.95476562 28.76953125 42.80078125 C30 45 30 45 29.69921875 47.29296875 C29.46847656 47.85628906 29.23773438 48.41960937 29 49 C24.62124399 50.07199767 20.33022046 50.17747927 15.84765625 50.203125 C14.68102699 50.21167511 14.68102699 50.21167511 13.49082947 50.22039795 C11.85107775 50.22981336 10.2113074 50.23636812 8.5715332 50.24023438 C6.07404461 50.24995507 3.57737447 50.28101631 1.08007812 50.3125 C-0.51822431 50.31902969 -2.1165326 50.3242803 -3.71484375 50.328125 C-4.45564682 50.3404718 -5.19644989 50.3528186 -5.95970154 50.36553955 C-12.20826795 50.33890827 -16.1653121 48.83747618 -20.5703125 44.42578125 C-21.43364368 43.39779067 -22.28465783 42.35936695 -23.125 41.3125 C-23.59019043 40.74797119 -24.05538086 40.18344238 -24.53466797 39.60180664 C-29.75731435 33.19662503 -34.67439801 26.55774746 -39.57763672 19.90722656 C-40.93736922 18.08398072 -42.32274152 16.28469257 -43.72265625 14.4921875 C-44.1407959 13.95215088 -44.55893555 13.41211426 -44.98974609 12.85571289 C-46.10656827 11.41677426 -47.23073783 9.98354659 -48.35546875 8.55078125 C-50.05598173 5.91316849 -50.81360333 4.12613848 -51 1 C-47.1982753 -2.8017247 -41.8891384 -2.1682808 -36.7578125 -2.31640625 C-36.07121552 -2.33718735 -35.38461853 -2.35796844 -34.67721558 -2.37937927 C-32.49323838 -2.44437435 -30.30914371 -2.50339737 -28.125 -2.5625 C-26.66535372 -2.60575478 -25.20571811 -2.64937114 -23.74609375 -2.69335938 C-3.88922185 -3.27445301 -3.88922185 -3.27445301 0 0 Z " fill="#2A58A7" transform="translate(240,426)"/>
<path d="M0 0 C7.03921647 -0.57698496 13.14943712 0.52493841 19.9375 2.25 C20.77837158 2.45455811 21.61924316 2.65911621 22.4855957 2.86987305 C23.68188599 3.18952026 23.68188599 3.18952026 24.90234375 3.515625 C25.97730103 3.79841309 25.97730103 3.79841309 27.07397461 4.08691406 C29.60725688 5.28788703 30.56177781 6.61052745 32 9 C32.68847656 11.11767578 32.68847656 11.11767578 33.140625 13.4453125 C33.41120728 14.78952271 33.41120728 14.78952271 33.68725586 16.16088867 C33.96581421 17.62812378 33.96581421 17.62812378 34.25 19.125 C34.67220289 21.26972326 35.09544469 23.41424217 35.51953125 25.55859375 C35.74979004 26.73405762 35.98004883 27.90952148 36.21728516 29.12060547 C37.0837285 33.41498624 38.01241217 37.69322402 38.94921875 41.97265625 C39.44803826 44.28117843 39.94517975 46.59005424 40.44152832 48.89910889 C40.77120009 50.42019966 41.10556663 51.94028076 41.44470215 53.45928955 C41.92338884 55.60948984 42.38346145 57.76294037 42.83984375 59.91796875 C43.11175537 61.16344482 43.38366699 62.4089209 43.66381836 63.69213867 C44.02131598 67.20973873 43.65044878 68.91743456 42 72 C41 73 41 73 38.1953125 73.23046875 C32.61071088 73.14352115 27.2674875 71.64918327 21.875 70.3125 C20.26818359 69.94608398 20.26818359 69.94608398 18.62890625 69.57226562 C8.33558958 67.04059683 8.33558958 67.04059683 5 62 C3.7789903 58.76514128 3.01893444 55.50555607 2.3125 52.125 C2.00179565 50.71335571 2.00179565 50.71335571 1.68481445 49.27319336 C1.0939792 46.52042222 0.53783749 43.76356924 0 41 C-0.13567383 40.31019043 -0.27134766 39.62038086 -0.41113281 38.90966797 C-1.94294518 30.73065294 -2.18731 22.61117319 -2.25 14.3125 C-2.25942627 13.35480713 -2.26885254 12.39711426 -2.27856445 11.41040039 C-2.27429443 10.50797607 -2.27002441 9.60555176 -2.265625 8.67578125 C-2.26336914 7.87052002 -2.26111328 7.06525879 -2.25878906 6.2355957 C-1.97393943 3.77487106 -1.22866796 2.13369721 0 0 Z " fill="#2D88C7" transform="translate(123,339)"/>
<path d="M0 0 C1.05900513 -0.03226685 1.05900513 -0.03226685 2.1394043 -0.06518555 C7.20755823 -0.09738938 7.20755823 -0.09738938 9.36274719 1.46257019 C11.07176626 3.7684733 11.18669022 5.3227797 11.39526367 8.17700195 C11.47512009 9.17846756 11.5549765 10.17993317 11.63725281 11.21174622 C11.70926407 12.29300278 11.78127533 13.37425934 11.85546875 14.48828125 C11.94000809 15.60180466 12.02454742 16.71532806 12.11164856 17.8625946 C12.37895431 21.42841367 12.62690739 24.99529806 12.875 28.5625 C13.05282798 30.95516825 13.23185019 33.34774806 13.41210938 35.74023438 C14.29036456 47.6032923 14.29036456 47.6032923 14.53329468 51.77407837 C14.65581857 53.74132271 14.84110687 55.70463727 15.0480957 57.66479492 C14.6875 60.25 14.6875 60.25 12.61279297 63.09008789 C9.05739648 65.71524168 7.26336665 65.85828486 2.8828125 65.80859375 C1.57699219 65.80150391 0.27117187 65.79441406 -1.07421875 65.78710938 C-1.7501709 65.77059326 -2.42612305 65.75407715 -3.12255859 65.73706055 C-5.1747781 65.68780534 -7.22458722 65.67558431 -9.27734375 65.66992188 C-15.66739166 65.5912267 -21.21620467 65.34434574 -27.3125 63.25 C-30.51904414 59.52206657 -29.4032516 54.47909796 -29.1105957 49.86425781 C-26.1486381 12.81871305 -26.1486381 12.81871305 -17.89453125 2.47265625 C-13.39632877 -1.00373233 -5.4333228 0.09916377 0 0 Z " fill="#30A2D8" transform="translate(192.3125,272.75)"/>
<path d="M0 0 C5.60334295 0.18412249 10.95769149 1.17935533 16.45214844 2.25097656 C18.41942615 2.62569613 20.39454357 2.95845198 22.36938477 3.29101562 C33.02445485 5.366324 33.02445485 5.366324 36.47290039 9.89648438 C37.30453403 11.28642534 38.10328546 12.6967134 38.86352539 14.12695312 C39.64940491 15.33513687 40.44469547 16.5372625 41.25024414 17.73242188 C41.62544189 18.31677002 42.00063965 18.90111816 42.38720703 19.50317383 C48.30864325 28.71885147 55.02526273 37.06719632 62.59399414 44.98242188 C63.42543945 45.85511719 64.25688477 46.7278125 65.11352539 47.62695312 C65.86118164 48.37976563 66.60883789 49.13257813 67.37915039 49.90820312 C68.86352539 52.12695312 68.86352539 52.12695312 68.59790039 54.90820312 C68.23438477 56.00648438 68.23438477 56.00648438 67.86352539 57.12695312 C60.16897566 57.48257909 53.18097117 56.45454459 45.67602539 54.81445312 C44.63510742 54.60111328 43.59418945 54.38777344 42.52172852 54.16796875 C25.38105719 50.52217517 16.72553535 40.06352651 7.32592773 25.79248047 C-4.6104593 6.97276433 -4.6104593 6.97276433 -4.13647461 1.12695312 C-3.13647461 0.12695312 -3.13647461 0.12695312 0 0 Z " fill="#2A62AE" transform="translate(141.136474609375,416.873046875)"/>
<path d="M0 0 C1.82212941 0.02392292 3.64406065 0.0744323 5.46484375 0.1484375 C6.38845703 0.16261719 7.31207031 0.17679687 8.26367188 0.19140625 C15.03505479 0.33979302 15.03505479 0.33979302 17.40234375 1.5234375 C17.68294356 8.03031957 16.62951466 13.59580313 15.08984375 19.8984375 C12.73828602 29.96695062 11.36089521 39.9795031 10.39135742 50.26904297 C10.28799072 51.31850098 10.18462402 52.36795898 10.078125 53.44921875 C9.95304565 54.84781128 9.95304565 54.84781128 9.82543945 56.2746582 C9.40234375 58.5234375 9.40234375 58.5234375 7.40234375 60.5234375 C1.35358836 60.93691361 -4.03544573 60.02098793 -9.91015625 58.6484375 C-10.70744141 58.47441406 -11.50472656 58.30039062 -12.32617188 58.12109375 C-16.01696789 57.28298195 -18.38949477 56.66221182 -21.59765625 54.5234375 C-22.91871113 48.22132827 -20.89703848 41.65661171 -19.09765625 35.6484375 C-18.83428467 34.74802734 -18.57091309 33.84761719 -18.29956055 32.91992188 C-15.65043402 24.17253207 -12.36750659 15.64234342 -8.45922852 7.37744141 C-7.72227465 5.79160189 -7.09341221 4.15629697 -6.48828125 2.515625 C-4.15455282 0.056531 -3.31060437 0.1679176 0 0 Z " fill="#31A7DB" transform="translate(145.59765625,273.4765625)"/>
<path d="M0 0 C0.73347656 -0.01611328 1.46695313 -0.03222656 2.22265625 -0.04882812 C7.04832901 -0.05314447 10.30086476 0.70153997 14.5 3.3125 C18.65922375 7.90198828 18.63845142 12.33288769 18.59765625 18.26171875 C18.5962413 19.03433548 18.59482635 19.80695221 18.59336853 20.60298157 C18.58777466 23.06869389 18.57522333 25.53431515 18.5625 28 C18.55748421 29.67252473 18.55292144 31.34505088 18.54882812 33.01757812 C18.53780724 37.11592046 18.52054684 41.21419479 18.5 45.3125 C15.2 45.3125 11.9 45.3125 8.5 45.3125 C8.5 44.6525 8.5 43.9925 8.5 43.3125 C7.736875 43.8075 6.97375 44.3025 6.1875 44.8125 C1.19564108 46.84308668 -3.17654428 47.02546282 -8.5 46.3125 C-12.93118719 44.17603475 -15.7290203 41.93672478 -17.5 37.3125 C-18.14891728 32.07309378 -18.1269128 27.74917517 -16 22.875 C-11.14332249 17.89690555 -5.13993774 15.41473592 1.8046875 15.26171875 C4.03782785 15.25128351 6.26733801 15.26872231 8.5 15.3125 C8.17 13.6625 7.84 12.0125 7.5 10.3125 C1.15899434 9.22630922 -3.32881939 9.56399883 -9.5 11.3125 C-12.5 11.4375 -12.5 11.4375 -14.5 11.3125 C-14.5 8.3425 -14.5 5.3725 -14.5 2.3125 C-9.52808243 0.3378935 -5.26286576 -0.02312331 0 0 Z M-7.5 29.3125 C-7.49510849 32.84712587 -7.49510849 32.84712587 -6.5 36.3125 C-4.1094537 38.43743005 -2.74489882 38.32292123 0.4375 38.1875 C4.16283205 37.12311941 5.97383126 36.28446322 8.5 33.3125 C8.9147743 30.26732159 8.79352855 27.36519695 8.5 24.3125 C1.9676068 23.97461759 -2.62916398 24.44166398 -7.5 29.3125 Z " fill="#1389B8" transform="translate(887.5,332.6875)"/>
<path d="M0 0 C0.73347656 -0.01611328 1.46695313 -0.03222656 2.22265625 -0.04882812 C7.04832901 -0.05314447 10.30086476 0.70153997 14.5 3.3125 C18.65922375 7.90198828 18.63845142 12.33288769 18.59765625 18.26171875 C18.5962413 19.03433548 18.59482635 19.80695221 18.59336853 20.60298157 C18.58777466 23.06869389 18.57522333 25.53431515 18.5625 28 C18.55748421 29.67252473 18.55292144 31.34505088 18.54882812 33.01757812 C18.53780724 37.11592046 18.52054684 41.21419479 18.5 45.3125 C15.2 45.3125 11.9 45.3125 8.5 45.3125 C8.5 44.6525 8.5 43.9925 8.5 43.3125 C7.736875 43.8075 6.97375 44.3025 6.1875 44.8125 C1.19564108 46.84308668 -3.17654428 47.02546282 -8.5 46.3125 C-12.93118719 44.17603475 -15.7290203 41.93672478 -17.5 37.3125 C-18.14891728 32.07309378 -18.1269128 27.74917517 -16 22.875 C-11.14332249 17.89690555 -5.13993774 15.41473592 1.8046875 15.26171875 C4.03782785 15.25128351 6.26733801 15.26872231 8.5 15.3125 C8.17 13.6625 7.84 12.0125 7.5 10.3125 C1.15899434 9.22630922 -3.32881939 9.56399883 -9.5 11.3125 C-12.5 11.4375 -12.5 11.4375 -14.5 11.3125 C-14.5 8.3425 -14.5 5.3725 -14.5 2.3125 C-9.52808243 0.3378935 -5.26286576 -0.02312331 0 0 Z M-7.5 29.3125 C-7.49510849 32.84712587 -7.49510849 32.84712587 -6.5 36.3125 C-4.1094537 38.43743005 -2.74489882 38.32292123 0.4375 38.1875 C4.16283205 37.12311941 5.97383126 36.28446322 8.5 33.3125 C8.9147743 30.26732159 8.79352855 27.36519695 8.5 24.3125 C1.9676068 23.97461759 -2.62916398 24.44166398 -7.5 29.3125 Z " fill="#1389B8" transform="translate(653.5,332.6875)"/>
<path d="M0 0 C7.51197711 7.51197711 7.375 12.49056705 7.375 23.375 C-2.195 23.375 -11.765 23.375 -21.625 23.375 C-19.56053174 30.65867846 -19.56053174 30.65867846 -14.625 34.375 C-9.25338445 35.84956113 -5.75566028 35.03160616 -0.71484375 33.14453125 C1.61702948 32.28587887 3.9237451 31.77036369 6.375 31.375 C6.375 34.675 6.375 37.975 6.375 41.375 C-1.51517729 45.23957663 -10.66489306 45.97825065 -19.1953125 43.68359375 C-24.71415441 41.17598307 -28.46574263 37.26906154 -30.734375 31.60546875 C-32.92193739 23.67075779 -32.82508507 14.66337714 -28.96875 7.28125 C-22.28623742 -2.19859343 -10.60572811 -4.75429191 0 0 Z M-18.625 9.375 C-21.01880091 12.57012368 -21.01880091 12.57012368 -21.625 16.375 C-15.355 16.375 -9.085 16.375 -2.625 16.375 C-3.12878619 10.86676833 -3.12878619 10.86676833 -4.8125 8.5625 C-9.80907374 5.28888272 -13.86330552 6.20053702 -18.625 9.375 Z " fill="#1389B8" transform="translate(517.625,334.625)"/>
<path d="M0 0 C5.308434 2.99220718 8.16169617 7.11092036 10.04296875 12.90625 C11.59022707 21.07635232 11.3579897 29.72232018 7.4609375 37.11328125 C3.73411516 41.5266235 0.0103068 44.74778027 -5.80859375 45.58203125 C-17.94472241 45.68907538 -17.94472241 45.68907538 -22.91796875 41.828125 C-28.90539043 35.49444279 -30.27209963 28.53698892 -30.12890625 20.02294922 C-29.73481849 12.87671121 -27.8319928 7.59664607 -22.91796875 2.3984375 C-16.60087734 -2.50579906 -7.3416029 -2.56391363 0 0 Z M-15.5390625 9.11328125 C-19.9458776 13.99225511 -19.82605332 18.86294161 -19.75 25.16015625 C-19.48501786 28.86990622 -18.81643636 31.15269523 -16.5390625 34.11328125 C-12.90547888 36.75588752 -11.32180094 37.23268203 -6.8515625 36.55078125 C-3.45268984 35.07579877 -2.24310969 34.33203705 -0.5390625 31.11328125 C1.19592246 25.3829436 1.38560929 18.84252092 -0.6640625 13.17578125 C-2.8748903 9.56476252 -4.59961091 8.53818927 -8.5390625 7.11328125 C-11.28852135 7.11328125 -13.07191469 7.90979451 -15.5390625 9.11328125 Z " fill="#1389B8" transform="translate(788.5390625,333.88671875)"/>
<path d="M0 0 C0.66 0 1.32 0 2 0 C3.63849781 4.74555517 5.27409977 9.49209573 6.90722656 14.23950195 C7.46115299 15.84848813 8.01581853 17.45722007 8.57128906 19.06567383 C10.15908762 23.6642709 11.73394235 28.26687329 13.28540039 32.87786865 C13.74721829 34.24931949 14.21171482 35.61987254 14.67944336 36.98931885 C15.28315688 38.76602905 15.86871552 40.54887822 16.453125 42.33203125 C16.77958008 43.31534424 17.10603516 44.29865723 17.44238281 45.31176758 C18.04907027 48.23656427 17.79398416 50.14471082 17 53 C-3.77471184 59.53126092 -3.77471184 59.53126092 -10 59 C-12 57 -12 57 -12.23046875 53.0546875 C-12.10432588 47.65318495 -11.27331157 42.43317899 -10.3125 37.125 C-10.04675171 35.63238647 -10.04675171 35.63238647 -9.77563477 34.10961914 C-8.55694753 27.49140452 -7.12880367 20.95085961 -5.4375 14.4375 C-5.24003174 13.67131348 -5.04256348 12.90512695 -4.83911133 12.11572266 C-3.66265781 7.78672242 -2.1597426 3.96265816 0 0 Z " fill="#32A9DD" transform="translate(225,202)"/>
<path d="M0 0 C6.40677399 2.19693686 10.93003685 6.64547263 16 11 C16.79535156 11.68191406 17.59070313 12.36382812 18.41015625 13.06640625 C20.98595674 15.33259466 23.49925992 17.65102898 26 20 C26.62084473 20.58152832 27.24168945 21.16305664 27.88134766 21.76220703 C29.9575831 23.72141559 32.01199254 25.70140386 34.0625 27.6875 C34.73055664 28.31736816 35.39861328 28.94723633 36.08691406 29.59619141 C39.77558922 33.22087349 41.85805259 35.56424936 42 41 C38.29214308 44.18797222 34.09545865 45.8478525 29.625 47.6875 C28.8825 48.00783203 28.14 48.32816406 27.375 48.65820312 C23.2120593 50.38295506 19.56105278 51.89471979 15 51 C11.84966761 46.78507613 10.45956325 41.88565431 8.86328125 36.9375 C8.57897751 36.06859131 8.29467377 35.19968262 8.00175476 34.30444336 C7.40456757 32.47317483 6.81053852 30.64087376 6.21948242 28.80761719 C5.31456252 26.00638465 4.39525753 23.21015964 3.47460938 20.4140625 C2.89495905 18.63049223 2.3161542 16.84664693 1.73828125 15.0625 C1.3258593 13.81231079 1.3258593 13.81231079 0.90510559 12.53686523 C-1.47750567 5.07950505 -1.47750567 5.07950505 -1 1 C-0.67 0.67 -0.34 0.34 0 0 Z " fill="#32A9DD" transform="translate(237,199)"/>
<path d="M0 0 C3.94574499 1.87535408 6.49938507 4.9265388 8 9 C8.16858166 11.79084219 8.23284241 14.47771993 8.1953125 17.265625 C8.1924826 18.05902283 8.18965271 18.85242065 8.18673706 19.66986084 C8.17556779 22.19672917 8.15046944 24.72323932 8.125 27.25 C8.11496598 28.9661407 8.10584087 30.68228698 8.09765625 32.3984375 C8.07563914 36.59909574 8.04113187 40.7994872 8 45 C5.03 45 2.06 45 -1 45 C-1.01981934 44.1529248 -1.03963867 43.30584961 -1.06005859 42.43310547 C-1.13849595 39.26830998 -1.22520049 36.1038758 -1.31738281 32.93945312 C-1.35549202 31.57398079 -1.39037536 30.20841423 -1.421875 28.84277344 C-1.46791878 26.87152393 -1.52681049 24.90058796 -1.5859375 22.9296875 C-1.6173584 21.74616699 -1.6487793 20.56264648 -1.68115234 19.34326172 C-2.00415768 15.95640484 -2.79649201 13.17134912 -4 10 C-7.50634166 8.86559534 -8.7480486 8.88637486 -12.1875 10.4375 C-13.115625 10.953125 -14.04375 11.46875 -15 12 C-15.66 12 -16.32 12 -17 12 C-17 22.89 -17 33.78 -17 45 C-20.3 45 -23.6 45 -27 45 C-27 30.48 -27 15.96 -27 1 C-22.66666667 1 -18.33333333 1 -14 1 C-9.79660729 -1.10169635 -4.56526849 -0.53638925 0 0 Z " fill="#1389B8" transform="translate(844,333)"/>
<path d="M0 0 C3.94574499 1.87535408 6.49938507 4.9265388 8 9 C8.16858166 11.79084219 8.23284241 14.47771993 8.1953125 17.265625 C8.1924826 18.05902283 8.18965271 18.85242065 8.18673706 19.66986084 C8.17556779 22.19672917 8.15046944 24.72323932 8.125 27.25 C8.11496598 28.9661407 8.10584087 30.68228698 8.09765625 32.3984375 C8.07563914 36.59909574 8.04113187 40.7994872 8 45 C5.03 45 2.06 45 -1 45 C-1.01981934 44.1529248 -1.03963867 43.30584961 -1.06005859 42.43310547 C-1.13849595 39.26830998 -1.22520049 36.1038758 -1.31738281 32.93945312 C-1.35549202 31.57398079 -1.39037536 30.20841423 -1.421875 28.84277344 C-1.46791878 26.87152393 -1.52681049 24.90058796 -1.5859375 22.9296875 C-1.6173584 21.74616699 -1.6487793 20.56264648 -1.68115234 19.34326172 C-2.00415768 15.95640484 -2.79649201 13.17134912 -4 10 C-7.50634166 8.86559534 -8.7480486 8.88637486 -12.1875 10.4375 C-13.115625 10.953125 -14.04375 11.46875 -15 12 C-15.66 12 -16.32 12 -17 12 C-17 22.89 -17 33.78 -17 45 C-20.3 45 -23.6 45 -27 45 C-27 30.48 -27 15.96 -27 1 C-22.66666667 1 -18.33333333 1 -14 1 C-9.79660729 -1.10169635 -4.56526849 -0.53638925 0 0 Z " fill="#1389B8" transform="translate(610,333)"/>
<path d="M0 0 C3.94574499 1.87535408 6.49938507 4.9265388 8 9 C8.16858166 11.79084219 8.23284241 14.47771993 8.1953125 17.265625 C8.1924826 18.05902283 8.18965271 18.85242065 8.18673706 19.66986084 C8.17556779 22.19672917 8.15046944 24.72323932 8.125 27.25 C8.11496598 28.9661407 8.10584087 30.68228698 8.09765625 32.3984375 C8.07563914 36.59909574 8.04113187 40.7994872 8 45 C5.03 45 2.06 45 -1 45 C-1.01981934 44.1529248 -1.03963867 43.30584961 -1.06005859 42.43310547 C-1.13849595 39.26830998 -1.22520049 36.1038758 -1.31738281 32.93945312 C-1.35549202 31.57398079 -1.39037536 30.20841423 -1.421875 28.84277344 C-1.46791878 26.87152393 -1.52681049 24.90058796 -1.5859375 22.9296875 C-1.6173584 21.74616699 -1.6487793 20.56264648 -1.68115234 19.34326172 C-2.00415768 15.95640484 -2.79649201 13.17134912 -4 10 C-7.50634166 8.86559534 -8.7480486 8.88637486 -12.1875 10.4375 C-13.115625 10.953125 -14.04375 11.46875 -15 12 C-15.66 12 -16.32 12 -17 12 C-17 22.89 -17 33.78 -17 45 C-20.3 45 -23.6 45 -27 45 C-27 30.48 -27 15.96 -27 1 C-22.66666667 1 -18.33333333 1 -14 1 C-9.79660729 -1.10169635 -4.56526849 -0.53638925 0 0 Z " fill="#1389B8" transform="translate(421,333)"/>
<path d="M0 0 C13.54944729 0.48390883 26.04186715 7.35200011 38.0625 13.0625 C39.13306641 13.56885986 40.20363281 14.07521973 41.30664062 14.59692383 C52.4973532 20.00829184 52.4973532 20.00829184 57 24 C57.83203125 26.55078125 57.83203125 26.55078125 57 29 C54.87727792 30.68061449 53.03230641 31.90919427 50.6875 33.1875 C49.50387576 33.86843659 48.32028106 34.54942452 47.13671875 35.23046875 C46.10160156 35.81441406 45.06648438 36.39835937 44 37 C43.01 37.66 42.02 38.32 41 39 C36.80734914 38.99420905 35.2749425 38.24902579 32.140625 35.41015625 C31.16397908 34.30572176 30.20100211 33.18909123 29.25 32.0625 C28.19286639 30.86849731 27.13425408 29.67580229 26.07421875 28.484375 C25.29377197 27.59588867 25.29377197 27.59588867 24.49755859 26.68945312 C18.33066198 19.73234119 11.78361133 13.7191138 4.11352539 8.4855957 C2.4921875 7.32421875 2.4921875 7.32421875 0 5 C-0.3671875 2.20703125 -0.3671875 2.20703125 0 0 Z " fill="#32A9DD" transform="translate(252,195)"/>
<path d="M0 0 C0.99 0.33 1.98 0.66 3 1 C2.41220838 8.69305981 1.09373357 16.1318228 -0.4375 23.6875 C-2.14075177 32.22488354 -3.62926233 40.67179864 -4.4453125 49.33984375 C-5 52 -5 52 -6.1796875 53.81640625 C-10.74973613 56.78791856 -16.61454089 56.12876547 -21.875 56.0625 C-22.56335938 56.05798828 -23.25171875 56.05347656 -23.9609375 56.04882812 C-25.64066335 56.03716336 -27.32034375 56.01923271 -29 56 C-30.87807881 50.78712741 -28.21037708 46.79317268 -25.97949219 42.03759766 C-10.77315739 10.40447945 -10.77315739 10.40447945 0 0 Z " fill="#32A9DD" transform="translate(209,209)"/>
<path d="M0 0 C2.97 0 5.94 0 9 0 C10.10557592 2.35351368 11.20948982 4.7077841 12.3125 7.0625 C12.62123047 7.71927734 12.92996094 8.37605469 13.24804688 9.05273438 C13.55419922 9.70693359 13.86035156 10.36113281 14.17578125 11.03515625 C14.45333252 11.6269165 14.73088379 12.21867676 15.0168457 12.82836914 C16.39150125 15.86476375 17.68703855 18.93642328 19 22 C22.3 14.74 25.6 7.48 29 0 C31.97 0 34.94 0 38 0 C38 14.52 38 29.04 38 44 C36.02 44 34.04 44 32 44 C31.67 33.11 31.34 22.22 31 11 C28.08062373 17.53586993 28.08062373 17.53586993 25.16625977 24.07397461 C24.80330811 24.88358643 24.44035645 25.69319824 24.06640625 26.52734375 C23.69459229 27.35999756 23.32277832 28.19265137 22.93969727 29.05053711 C22 31 22 31 21 32 C19.35 32 17.7 32 16 32 C13.03 25.07 10.06 18.14 7 11 C6.67 21.89 6.34 32.78 6 44 C4.02 44 2.04 44 0 44 C0 29.48 0 14.96 0 0 Z " fill="#292E7A" transform="translate(364,408)"/>
<path d="M0 0 C7.00266781 -0.13278104 13.99722172 -0.12979664 21 0 C21.75071777 0.01160156 22.50143555 0.02320313 23.27490234 0.03515625 C34.91021536 0.36783139 42.64964912 4.54067872 52.35888672 10.44384766 C58.54308812 14.08759878 64.94880357 17.35349653 71.29296875 20.70825195 C72.28039062 21.23765381 73.2678125 21.76705566 74.28515625 22.3125 C75.17082275 22.78300781 76.05648926 23.25351562 76.96899414 23.73828125 C79 25 79 25 80 27 C52.40182271 28.31652082 23.13495664 18.47874035 1 2 C0.67 1.34 0.34 0.68 0 0 Z " fill="#2A419A" transform="translate(192,484)"/>
<path d="M0 0 C2.05238389 1.91204995 3.96350803 3.83134119 5.875 5.875 C12.39783599 12.64715244 19.48230542 18.3758177 27 24 C26.505 25.485 26.505 25.485 26 27 C3.49462356 29.25471304 -18.95028362 17.39372648 -37 5 C-37 4.67 -37 4.34 -37 4 C-35.98015015 3.87939209 -35.98015015 3.87939209 -34.93969727 3.75634766 C-31.81338598 3.38392108 -28.68795937 3.00450703 -25.5625 2.625 C-24.49322266 2.49867188 -23.42394531 2.37234375 -22.32226562 2.2421875 C-16.74559657 1.56002615 -11.34612168 0.74970921 -5.91772461 -0.71728516 C-3.61056785 -1.05741088 -2.18360986 -0.80814905 0 0 Z " fill="#2A3B97" transform="translate(281,482)"/>
<path d="M0 0 C8.25 0 16.5 0 25 0 C25 2.64 25 5.28 25 8 C22.36 8 19.72 8 17 8 C17 21.86 17 35.72 17 50 C19.64 50 22.28 50 25 50 C25 52.64 25 55.28 25 58 C16.75 58 8.5 58 0 58 C0 55.36 0 52.72 0 50 C2.31 50 4.62 50 7 50 C7 36.14 7 22.28 7 8 C4.69 8 2.38 8 0 8 C0 5.36 0 2.72 0 0 Z " fill="#1389B8" transform="translate(351,320)"/>
<path d="M0 0 C3.3 0 6.6 0 10 0 C10 3.96 10 7.92 10 12 C14.29 12 18.58 12 23 12 C23 14.64 23 17.28 23 20 C18.71 20 14.42 20 10 20 C10.08657036 24.29269593 10.19340792 28.58319106 10.3125 32.875 C10.33505859 34.09832031 10.35761719 35.32164062 10.38085938 36.58203125 C10.41630859 37.74863281 10.45175781 38.91523438 10.48828125 40.1171875 C10.52755737 41.73536377 10.52755737 41.73536377 10.56762695 43.38623047 C10.71031006 44.24877441 10.85299316 45.11131836 11 46 C14.20380017 48.13586678 15.01939967 48.23132175 18.6875 48.125 C19.49574219 48.10695313 20.30398438 48.08890625 21.13671875 48.0703125 C21.75160156 48.04710937 22.36648438 48.02390625 23 48 C23 50.64 23 53.28 23 56 C20.19892988 57.40053506 17.81108319 57.2075504 14.6875 57.25 C13.55699219 57.27578125 12.42648437 57.3015625 11.26171875 57.328125 C7.54400679 56.95412763 5.84917478 56.41272632 3 54 C-1.1299759 47.54075352 -0.33964307 40.50190605 -0.1875 33.0625 C-0.17396484 31.80630859 -0.16042969 30.55011719 -0.14648438 29.25585938 C-0.11128591 26.17012721 -0.06204305 23.08528976 0 20 C-1.65 20 -3.3 20 -5 20 C-5 17.36 -5 14.72 -5 12 C-3.35 12 -1.7 12 0 12 C0 8.04 0 4.08 0 0 Z " fill="#1389B8" transform="translate(693,322)"/>
<path d="M0 0 C3.3 0 6.6 0 10 0 C10 3.96 10 7.92 10 12 C14.29 12 18.58 12 23 12 C23 14.64 23 17.28 23 20 C18.71 20 14.42 20 10 20 C10.08657036 24.29269593 10.19340792 28.58319106 10.3125 32.875 C10.33505859 34.09832031 10.35761719 35.32164062 10.38085938 36.58203125 C10.41630859 37.74863281 10.45175781 38.91523438 10.48828125 40.1171875 C10.52755737 41.73536377 10.52755737 41.73536377 10.56762695 43.38623047 C10.71031006 44.24877441 10.85299316 45.11131836 11 46 C14.20380017 48.13586678 15.01939967 48.23132175 18.6875 48.125 C19.49574219 48.10695313 20.30398438 48.08890625 21.13671875 48.0703125 C21.75160156 48.04710937 22.36648438 48.02390625 23 48 C23 50.64 23 53.28 23 56 C20.19892988 57.40053506 17.81108319 57.2075504 14.6875 57.25 C13.55699219 57.27578125 12.42648437 57.3015625 11.26171875 57.328125 C7.54400679 56.95412763 5.84917478 56.41272632 3 54 C-1.1299759 47.54075352 -0.33964307 40.50190605 -0.1875 33.0625 C-0.17396484 31.80630859 -0.16042969 30.55011719 -0.14648438 29.25585938 C-0.11128591 26.17012721 -0.06204305 23.08528976 0 20 C-1.65 20 -3.3 20 -5 20 C-5 17.36 -5 14.72 -5 12 C-3.35 12 -1.7 12 0 12 C0 8.04 0 4.08 0 0 Z " fill="#1389B8" transform="translate(450,322)"/>
<path d="M0 0 C2.31 0 4.62 0 7 0 C8.87574244 5.35114402 10.10974965 10.73641679 11.31640625 16.26953125 C11.72552289 18.89692526 11.72552289 18.89692526 13 20 C14.98 13.4 16.96 6.8 19 0 C20.98 0 22.96 0 25 0 C28.00442075 6.45950461 29.97912498 13.17826451 32 20 C33.85715944 15.84157778 34.78990051 11.63994372 35.625 7.1875 C35.7590625 6.49462891 35.893125 5.80175781 36.03125 5.08789062 C36.35858288 3.39277391 36.67990594 1.69649854 37 0 C39.31 0 41.62 0 44 0 C42.7344221 7.70757691 40.99059098 15.17158467 38.875 22.6875 C38.59785156 23.68716797 38.32070313 24.68683594 38.03515625 25.71679688 C37.36108709 28.14577023 36.68266323 30.57343085 36 33 C34.02 33 32.04 33 30 33 C27.50932112 27.05777121 25.34689367 21.1416695 23.61328125 14.93359375 C23.16780385 13.01439129 23.16780385 13.01439129 22 12 C19.69 18.93 17.38 25.86 15 33 C13.02 33 11.04 33 9 33 C6.51331805 25.89839479 4.59633394 18.74461236 2.8125 11.4375 C2.53986328 10.33341797 2.26722656 9.22933594 1.98632812 8.09179688 C1.32096233 5.39531443 0.65892926 2.69806115 0 0 Z " fill="#292E7A" transform="translate(558,419)"/>
<path d="M0 0 C1.18464844 -0.00773437 2.36929688 -0.01546875 3.58984375 -0.0234375 C7.3442353 0.40732509 9.81015283 1.49807293 13.0625 3.375 C13.0625 5.685 13.0625 7.995 13.0625 10.375 C12.36125 10.08625 11.66 9.7975 10.9375 9.5 C9.98875 9.12875 9.04 8.7575 8.0625 8.375 C7.11375 7.983125 6.165 7.59125 5.1875 7.1875 C1.40229394 6.20334642 -1.15275236 6.44666567 -4.9375 7.375 C-6.96228463 8.48149669 -6.96228463 8.48149669 -7.9375 10.375 C-8.52083333 12.875 -8.52083333 12.875 -7.9375 15.375 C-4.8153726 18.33201489 -1.60216761 19.17821979 2.5 20.25 C11.53884124 22.98196437 11.53884124 22.98196437 14.0625 27.375 C14.86184607 31.84313957 15.1504743 36.20761813 13.0703125 40.3515625 C10.80971167 43.20188528 8.42310153 45.08201293 5.0625 46.375 C-2.43843899 47.07849854 -9.30521114 47.16487935 -15.9375 43.375 C-15.9375 40.735 -15.9375 38.095 -15.9375 35.375 C-15.4425 35.643125 -14.9475 35.91125 -14.4375 36.1875 C-7.76843328 39.35530669 -3.34361454 41.03499119 4.0625 39.375 C6.41136432 37.43425114 6.41136432 37.43425114 6.5 33.9375 C6.44167028 30.3737356 6.44167028 30.3737356 4.25 28.625 C1.34612728 27.48622639 -1.41511657 26.74233979 -4.4375 26 C-9.42240989 24.72354059 -11.85391282 23.48644958 -14.9375 19.375 C-16.14393566 15.75569302 -16.26018559 13.18268995 -15.9375 9.375 C-12.20504641 2.18657087 -7.97860183 -0.05197786 0 0 Z " fill="#292E7A" transform="translate(708.9375,406.625)"/>
<path d="M0 0 C4.33625122 2.26239194 6.02979949 5.21875499 7.49609375 9.7265625 C9.03296301 16.66034474 8.64480471 23.78661245 5 30 C0.99714676 33.8075921 -1.55208727 35.14083696 -7 35.125 C-7.886875 35.12757813 -8.77375 35.13015625 -9.6875 35.1328125 C-12 35 -12 35 -14 34 C-14 37.96 -14 41.92 -14 46 C-15.98 46 -17.96 46 -20 46 C-20 31.15 -20 16.3 -20 1 C-17 1 -14 1 -11 1 C-7.52674124 -0.73662938 -3.79754321 -0.45412562 0 0 Z M-14 9 C-14.74863638 12.27438481 -14.56723988 15.4129128 -14.375 18.75 C-14.34792969 19.63816406 -14.32085937 20.52632813 -14.29296875 21.44140625 C-14.22236624 23.63008395 -14.12385527 25.81379568 -14 28 C-9.98188193 30.28723644 -7.52581294 30.0697376 -3 29 C-0.41544715 27.10466125 -0.03724494 26.11173483 1 23 C1.1447963 21.04524991 1.22067502 19.0848862 1.25 17.125 C1.27578125 16.09632813 1.3015625 15.06765625 1.328125 14.0078125 C0.95318648 10.57087609 0.08202972 8.73848144 -2 6 C-7.22926158 4.02450118 -9.99189959 5.30234721 -14 9 Z " fill="#292E7A" transform="translate(508,418)"/>
<path d="M0 0 C3.3 0 6.6 0 10 0 C10 20.13 10 40.26 10 61 C6.7 61 3.4 61 0 61 C0 40.87 0 20.74 0 0 Z " fill="#1389B8" transform="translate(926,317)"/>
<path d="M0 0 C3.3 0 6.6 0 10 0 C10 0.99 10 1.98 10 3 C10.61875 2.505 11.2375 2.01 11.875 1.5 C16.26029741 -0.60494276 20.21713261 -0.25075227 25 0 C25 2.97 25 5.94 25 9 C24.24074219 9.12117188 23.48148438 9.24234375 22.69921875 9.3671875 C21.70535156 9.53476562 20.71148438 9.70234375 19.6875 9.875 C18.70136719 10.03742188 17.71523438 10.19984375 16.69921875 10.3671875 C13.79940173 10.88085454 13.79940173 10.88085454 11 13 C10.48745872 16.2001106 10.48745872 16.2001106 10.48828125 19.9765625 C10.47033005 20.66181 10.45237885 21.3470575 10.43388367 22.05307007 C10.37966292 24.24365059 10.34584947 26.4340119 10.3125 28.625 C10.27933706 30.10940559 10.24484835 31.59378221 10.20898438 33.078125 C10.12393185 36.71853912 10.05717644 40.35902944 10 44 C6.7 44 3.4 44 0 44 C0 29.48 0 14.96 0 0 Z " fill="#1389B8" transform="translate(542,334)"/>
<path d="M0 0 C-2.0781289 6.59446165 -4.96241003 12.7862961 -7.85766602 19.05029297 C-8.49464869 20.43435812 -9.12583676 21.8211047 -9.7512207 23.21044922 C-10.6613581 25.23228686 -11.5883883 27.24557754 -12.51953125 29.2578125 C-13.06714111 30.4555127 -13.61475098 31.65321289 -14.17895508 32.88720703 C-16.10835833 36.18522171 -17.81323271 37.92650698 -21 40 C-24.0078125 40.4609375 -24.0078125 40.4609375 -27.125 40.375 C-28.15882813 40.36210937 -29.19265625 40.34921875 -30.2578125 40.3359375 C-33 40 -33 40 -36 38 C-35.23732579 30.84735268 -31.6164092 27.26004318 -27 22 C-26.13375 21.01128906 -25.2675 20.02257812 -24.375 19.00390625 C-7.45234412 0 -7.45234412 0 0 0 Z " fill="#32A9DD" transform="translate(186,226)"/>
<path d="M0 0 C1.21429688 -0.02578125 2.42859375 -0.0515625 3.6796875 -0.078125 C7.39308278 0.27553169 9.18974277 0.99858406 12.125 3.25 C14.51612209 6.83668313 14.35881027 8.41396569 14.3203125 12.66796875 C14.31386719 13.92158203 14.30742187 15.17519531 14.30078125 16.46679688 C14.28402344 17.77712891 14.26726562 19.08746094 14.25 20.4375 C14.23996639 21.77277987 14.2308412 23.10806689 14.22265625 24.44335938 C14.19905292 27.71242015 14.16612594 30.98112028 14.125 34.25 C11.125 34.25 8.125 34.25 5.125 34.25 C4.135 34.745 4.135 34.745 3.125 35.25 C-1.84174233 35.86534861 -5.63829005 36.03240834 -9.9375 33.3125 C-12.47187868 29.30654661 -13.16664884 25.96784883 -12.875 21.25 C-11.21419133 17.00571118 -8.94758037 15.18932399 -4.875 13.25 C-0.56991146 11.97010881 3.67143428 12.17451584 8.125 12.25 C7.465 10.6 6.805 8.95 6.125 7.25 C0.43802429 6.33602176 -4.18802429 6.33602176 -9.875 7.25 C-9.875 5.27 -9.875 3.29 -9.875 1.25 C-6.42834258 0.10111419 -3.63148095 0.0460653 0 0 Z M1.6875 18.0625 C0.90503906 18.21332031 0.12257813 18.36414063 -0.68359375 18.51953125 C-3.16795417 19.34765139 -4.26737839 20.20255739 -5.875 22.25 C-6.45833333 24.75 -6.45833333 24.75 -5.875 27.25 C-4.33686579 29.27896212 -4.33686579 29.27896212 -1.875 30.25 C1.28412664 30.11836972 3.59742056 29.47213871 6.5 28.25 C9.15062036 24.98769802 8.42998968 21.29111324 8.125 17.25 C5.87336235 17.25 3.89532472 17.61658466 1.6875 18.0625 Z " fill="#292E7A" transform="translate(423.875,417.75)"/>
<path d="M0 0 C17.69107802 -0.72372592 34.33529239 2.11149298 51 8 C51.70703125 10.265625 51.70703125 10.265625 52 13 C50.63671875 14.984375 50.63671875 14.984375 48.6875 16.75 C48.05199219 17.34296875 47.41648437 17.9359375 46.76171875 18.546875 C43.68891999 21.08142298 41.21026356 21.36630508 37.23388672 21.30810547 C33.17403932 20.74815712 30.0155248 18.66657896 26.5625 16.5625 C24.99451482 15.64797949 23.42547486 14.73526545 21.85546875 13.82421875 C21.05931152 13.35677246 20.2631543 12.88932617 19.44287109 12.40771484 C15.47712748 10.12243824 11.42908377 7.99836247 7.375 5.875 C6.63451416 5.48513916 5.89402832 5.09527832 5.13110352 4.69360352 C3.42169769 3.7939055 1.71100492 2.89665321 0 2 C0 1.34 0 0.68 0 0 Z " fill="#32A9DD" transform="translate(281,193)"/>
<path d="M0 0 C4.56108735 2.24053414 5.70524839 3.41049679 8 8 C8 11.3 8 14.6 8 18 C0.74 18 -6.52 18 -14 18 C-12.76925502 24.22257899 -12.76925502 24.22257899 -9 28 C-2.74038865 29.78846039 2.08450041 28.10672722 8 26 C8 28.31 8 30.62 8 33 C1.8507606 35.73299529 -5.77625198 36.37086558 -12.2265625 34.27734375 C-16.77436857 31.88732652 -18.91129783 28.87021482 -20.6875 24.1875 C-21.63778723 17.53548939 -21.22669635 11.94525154 -18 6 C-12.46947134 -0.33987432 -8.18241443 -0.84247709 0 0 Z M-12 8 C-14.2773501 10.81509993 -14.2773501 10.81509993 -14 14 C-8.72 14 -3.44 14 2 14 C1.63315494 8.30018119 1.63315494 8.30018119 -0.8125 6.125 C-5.32117079 3.80625502 -8.18857049 5.29187903 -12 8 Z " fill="#292E7A" transform="translate(897,418)"/>
<path d="M0 0 C4.56108735 2.24053414 5.70524839 3.41049679 8 8 C8 11.3 8 14.6 8 18 C0.74 18 -6.52 18 -14 18 C-12.76925502 24.22257899 -12.76925502 24.22257899 -9 28 C-2.74038865 29.78846039 2.08450041 28.10672722 8 26 C8 28.31 8 30.62 8 33 C1.8507606 35.73299529 -5.77625198 36.37086558 -12.2265625 34.27734375 C-16.77436857 31.88732652 -18.91129783 28.87021482 -20.6875 24.1875 C-21.63778723 17.53548939 -21.22669635 11.94525154 -18 6 C-12.46947134 -0.33987432 -8.18241443 -0.84247709 0 0 Z M-12 8 C-14.2773501 10.81509993 -14.2773501 10.81509993 -14 14 C-8.72 14 -3.44 14 2 14 C1.63315494 8.30018119 1.63315494 8.30018119 -0.8125 6.125 C-5.32117079 3.80625502 -8.18857049 5.29187903 -12 8 Z " fill="#292E7A" transform="translate(751,418)"/>
<path d="M0 0 C4.56108735 2.24053414 5.70524839 3.41049679 8 8 C8 11.3 8 14.6 8 18 C0.74 18 -6.52 18 -14 18 C-12.76925502 24.22257899 -12.76925502 24.22257899 -9 28 C-2.74038865 29.78846039 2.08450041 28.10672722 8 26 C8 28.31 8 30.62 8 33 C1.8507606 35.73299529 -5.77625198 36.37086558 -12.2265625 34.27734375 C-16.77436857 31.88732652 -18.91129783 28.87021482 -20.6875 24.1875 C-21.63778723 17.53548939 -21.22669635 11.94525154 -18 6 C-12.46947134 -0.33987432 -8.18241443 -0.84247709 0 0 Z M-12 8 C-14.2773501 10.81509993 -14.2773501 10.81509993 -14 14 C-8.72 14 -3.44 14 2 14 C1.63315494 8.30018119 1.63315494 8.30018119 -0.8125 6.125 C-5.32117079 3.80625502 -8.18857049 5.29187903 -12 8 Z " fill="#292E7A" transform="translate(629,418)"/>
<path d="M0 0 C1.28027344 2.31323242 1.28027344 2.31323242 2.359375 5.35546875 C2.75253906 6.45310547 3.14570313 7.55074219 3.55078125 8.68164062 C3.94652344 9.83857422 4.34226562 10.99550781 4.75 12.1875 C5.16121094 13.32509766 5.57242187 14.46269531 5.99609375 15.63476562 C7.87402796 20.97845549 9.2489811 25.28247895 9 31 C2.95766864 31.65558749 -0.03585932 28.35041852 -4.58203125 24.78125 C-5.72285928 23.85601942 -6.86210828 22.92883941 -8 22 C-8.62310059 21.49726563 -9.24620117 20.99453125 -9.88818359 20.4765625 C-11.81287404 18.91545166 -13.72146428 17.33681463 -15.625 15.75 C-16.22884521 15.25532227 -16.83269043 14.76064453 -17.45483398 14.25097656 C-20.75233234 11.44567729 -22.81763512 9.20737632 -24 5 C-19.09990705 3.29404171 -14.16873812 1.70286112 -9.1875 0.25 C-8.29417969 -0.01296875 -7.40085937 -0.2759375 -6.48046875 -0.546875 C-3.75135594 -1.04542159 -2.53610145 -1.09853188 0 0 Z " fill="#2A3A97" transform="translate(315,474)"/>
<path d="M0 0 C3.95484476 1.43047576 6.30043238 3.81674431 8.26953125 7.578125 C10.25813067 14.17134232 10.57219986 23.02330802 7.3125 29.25 C4.1969343 32.95499705 2.35217726 34.7122719 -2.5546875 35.3125 C-7.1824652 35.51316245 -10.28300186 35.34569553 -14.5 33.3125 C-18.70813553 29.41997464 -20.64986779 25.5821218 -21.203125 19.921875 C-21.32067977 14.47517082 -20.75143956 9.78793813 -18 5 C-12.29461368 -0.42707479 -7.63047845 -0.58610921 0 0 Z M-13 9 C-14.8292918 14.48787539 -14.97502242 20.72494768 -12.6875 26.0625 C-10.96162871 28.2156101 -10.96162871 28.2156101 -8 30 C-4.42007594 29.84766281 -2.52428743 29.41092799 0.3125 27.1875 C3.48564948 23.07415808 3.34652276 19.11121074 3 14 C2.06252832 10.58098564 0.99426492 7.73768043 -1.9375 5.5625 C-7.11902671 4.14935635 -9.30528975 5.50500382 -13 9 Z " fill="#292E7A" transform="translate(543,418)"/>
<path d="M0 0 C2.75569447 2.18159145 4.43588747 3.87177494 6 7 C6.08527628 9.03232634 6.10716135 11.06747006 6.09765625 13.1015625 C6.09443359 14.31328125 6.09121094 15.525 6.08789062 16.7734375 C6.07951172 18.04445313 6.07113281 19.31546875 6.0625 20.625 C6.05798828 21.90375 6.05347656 23.1825 6.04882812 24.5 C6.03701203 27.66671292 6.02053815 30.83333356 6 34 C4.02 34 2.04 34 0 34 C-0.02505615 33.32420898 -0.0501123 32.64841797 -0.07592773 31.95214844 C-0.19210742 28.8845832 -0.31473437 25.81730842 -0.4375 22.75 C-0.47681641 21.68652344 -0.51613281 20.62304688 -0.55664062 19.52734375 C-0.59853516 18.50253906 -0.64042969 17.47773438 -0.68359375 16.421875 C-0.72025146 15.47924805 -0.75690918 14.53662109 -0.79467773 13.56542969 C-0.97939228 11.25748623 -1.35861612 9.21859476 -2 7 C-5.4251661 6.12379472 -7.35609509 5.72908411 -10.6628418 7.12036133 C-13.23150717 8.79884531 -13.23150717 8.79884531 -13.65942383 11.63549805 C-13.67513428 12.66715088 -13.69084473 13.69880371 -13.70703125 14.76171875 C-13.73603516 15.87998047 -13.76503906 16.99824219 -13.79492188 18.15039062 C-13.80072266 19.31763672 -13.80652344 20.48488281 -13.8125 21.6875 C-13.83763672 22.86634766 -13.86277344 24.04519531 -13.88867188 25.25976562 C-13.9476546 28.173512 -13.98385371 31.08575228 -14 34 C-15.98 34 -17.96 34 -20 34 C-20 23.11 -20 12.22 -20 1 C-17 1 -14 1 -11 1 C-7.52736727 -0.73631636 -3.78806987 -0.60190402 0 0 Z " fill="#292E7A" transform="translate(470,418)"/>
<path d="M0 0 C1.04027344 -0.01417969 2.08054687 -0.02835937 3.15234375 -0.04296875 C6.01296613 0.18357718 7.63920151 0.71016381 10.0625 2.1875 C10.0625 4.1675 10.0625 6.1475 10.0625 8.1875 C9.4025 8.043125 8.7425 7.89875 8.0625 7.75 C0.78448801 5.97542958 0.78448801 5.97542958 -5.9375 8.1875 C-6.18780977 10.77130177 -6.18780977 10.77130177 -5.9375 13.1875 C-5.04546875 13.34605469 -4.1534375 13.50460937 -3.234375 13.66796875 C-2.06390625 13.90128906 -0.8934375 14.13460938 0.3125 14.375 C1.47265625 14.59542969 2.6328125 14.81585938 3.828125 15.04296875 C7.66349772 16.4001719 8.95406359 17.75229141 11.0625 21.1875 C11.49958054 25.33976516 11.62820589 28.76655881 9.0625 32.1875 C5.29210763 34.90351716 2.68483786 35.57664591 -1.9375 35.5 C-3.4534375 35.49419922 -3.4534375 35.49419922 -5 35.48828125 C-7.98975499 35.18214942 -10.22102213 34.4408749 -12.9375 33.1875 C-12.9375 30.8775 -12.9375 28.5675 -12.9375 26.1875 C-12.36902344 26.41566406 -11.80054688 26.64382813 -11.21484375 26.87890625 C-5.91596026 28.85161246 -2.4569609 29.47928872 3.0625 28.1875 C3.3925 26.2075 3.7225 24.2275 4.0625 22.1875 C3.25425781 22.01734375 2.44601562 21.8471875 1.61328125 21.671875 C-10.1202121 19.01096215 -10.1202121 19.01096215 -12.9375 15.1875 C-13.88534449 10.55262742 -13.57900775 7.24930593 -11.125 3.1875 C-7.61525425 -0.0214104 -4.57980536 0.02830535 0 0 Z " fill="#292E7A" transform="translate(925.9375,417.8125)"/>
<path d="M0 0 C3.3 0 6.6 0 10 0 C10 14.52 10 29.04 10 44 C6.7 44 3.4 44 0 44 C0 29.48 0 14.96 0 0 Z " fill="#1389B8" transform="translate(731,334)"/>
<path d="M0 0 C2.31 0 4.62 0 7 0 C9.64 7.26 12.28 14.52 15 22 C17.64 14.74 20.28 7.48 23 0 C25.31 0 27.62 0 30 0 C27.97099446 7.1470606 25.5571073 14.07367896 22.875 21 C22.51535156 21.93972656 22.15570312 22.87945312 21.78515625 23.84765625 C19.16153921 30.67692158 19.16153921 30.67692158 18 33 C16.02 33 14.04 33 12 33 C8.83993951 25.70419214 5.94977263 18.32912055 3.1875 10.875 C2.87353271 10.03348389 2.55956543 9.19196777 2.23608398 8.32495117 C1.94548096 7.53451416 1.65487793 6.74407715 1.35546875 5.9296875 C1.09403076 5.22054199 0.83259277 4.51139648 0.56323242 3.78076172 C0 2 0 2 0 0 Z " fill="#292E7A" transform="translate(791,419)"/>
<path d="M0 0 C0.94746094 -0.01417969 1.89492188 -0.02835937 2.87109375 -0.04296875 C5.60751644 0.19135482 7.22678123 0.79048617 9.5625 2.1875 C9.5625 4.4975 9.5625 6.8075 9.5625 9.1875 C8.881875 8.878125 8.20125 8.56875 7.5 8.25 C3.40891757 6.77024678 -0.48137285 5.60594869 -4.75 6.875 C-6.83676109 8.49803641 -7.45062591 9.73513906 -8.4375 12.1875 C-8.75273089 14.87045363 -8.75273089 14.87045363 -8.6875 17.6875 C-8.69265625 18.6259375 -8.6978125 19.564375 -8.703125 20.53125 C-8.43020701 23.26042989 -7.8849037 24.87891703 -6.4375 27.1875 C-3.76569286 29.26557222 -2.42611237 29.18667181 1 28.9375 C4.07997534 28.28908414 6.70730413 27.48531631 9.5625 26.1875 C9.5625 28.4975 9.5625 30.8075 9.5625 33.1875 C4.19511473 35.6139852 -0.62130734 35.87929384 -6.4375 35.1875 C-10.93362965 33.0197232 -13.34156512 30.71030685 -15.4375 26.1875 C-17.46083214 19.19780715 -16.8262837 12.57662975 -13.4375 6.1875 C-9.23544065 1.25008026 -6.36928869 0.04321091 0 0 Z " fill="#292E7A" transform="translate(860.4375,417.8125)"/>
<path d="M0 0 C1.98 0 3.96 0 6 0 C6 0.99 6 1.98 6 3 C6.680625 2.505 7.36125 2.01 8.0625 1.5 C11.59465009 -0.30365111 14.08636991 -0.23021353 18 0 C18 1.98 18 3.96 18 6 C17.06027344 6.18175781 17.06027344 6.18175781 16.1015625 6.3671875 C15.28429687 6.53476562 14.46703125 6.70234375 13.625 6.875 C12.40683594 7.11863281 12.40683594 7.11863281 11.1640625 7.3671875 C8.81326077 7.86658932 8.81326077 7.86658932 7 10 C6.62904292 12.42246595 6.62904292 12.42246595 6.5859375 15.2265625 C6.54726563 16.2578125 6.50859375 17.2890625 6.46875 18.3515625 C6.42234375 19.97191406 6.42234375 19.97191406 6.375 21.625 C6.33632813 22.71296875 6.29765625 23.8009375 6.2578125 24.921875 C6.16333753 27.61441165 6.07777569 30.30693757 6 33 C4.02 33 2.04 33 0 33 C0 22.11 0 11.22 0 0 Z " fill="#292E7A" transform="translate(769,419)"/>
<path d="M0 0 C1.98 0 3.96 0 6 0 C6 0.99 6 1.98 6 3 C6.680625 2.505 7.36125 2.01 8.0625 1.5 C11.59465009 -0.30365111 14.08636991 -0.23021353 18 0 C18 1.98 18 3.96 18 6 C17.06027344 6.18175781 17.06027344 6.18175781 16.1015625 6.3671875 C15.28429687 6.53476562 14.46703125 6.70234375 13.625 6.875 C12.40683594 7.11863281 12.40683594 7.11863281 11.1640625 7.3671875 C8.81326077 7.86658932 8.81326077 7.86658932 7 10 C6.62904292 12.42246595 6.62904292 12.42246595 6.5859375 15.2265625 C6.54726563 16.2578125 6.50859375 17.2890625 6.46875 18.3515625 C6.42234375 19.97191406 6.42234375 19.97191406 6.375 21.625 C6.33632813 22.71296875 6.29765625 23.8009375 6.2578125 24.921875 C6.16333753 27.61441165 6.07777569 30.30693757 6 33 C4.02 33 2.04 33 0 33 C0 22.11 0 11.22 0 0 Z " fill="#292E7A" transform="translate(647,419)"/>
<path d="M0 0 C1.98 0 3.96 0 6 0 C6 10.89 6 21.78 6 33 C4.02 33 2.04 33 0 33 C0 22.11 0 11.22 0 0 Z " fill="#292E7A" transform="translate(829,419)"/>
<path d="M0 0 C3.63 0 7.26 0 11 0 C11 2.97 11 5.94 11 9 C7.37 9 3.74 9 0 9 C0 6.03 0 3.06 0 0 Z " fill="#1389B8" transform="translate(730,320)"/>
<path d="M0 0 C2.31 0 4.62 0 7 0 C7 1.98 7 3.96 7 6 C4.69 6 2.38 6 0 6 C0 4.02 0 2.04 0 0 Z " fill="#292E7A" transform="translate(828,408)"/>
</svg>
